<svg width="49" height="48" viewBox="0 0 49 48" fill="none" xmlns="http://www.w3.org/2000/svg">
<path d="M48.825 40.0587C48.825 38.8919 48.3706 37.7949 47.5456 36.97L38.5814 28.0057C38.3021 27.7264 37.8493 27.7263 37.5699 28.0057L37.3561 28.2195L34.0913 24.9547C35.4078 22.7221 36.1107 20.1704 36.1107 17.5104C36.1107 13.5857 34.5823 9.89584 31.8071 7.12063C29.0318 4.34543 25.342 2.81707 21.4172 2.81707C20.748 2.81707 20.0858 2.86256 19.4335 2.9501V2.14143C19.4335 0.960766 18.4729 9.53999e-05 17.2923 9.53999e-05H11.0351C10.64 9.53999e-05 10.3199 0.320319 10.3199 0.715305C10.3199 1.11029 10.64 1.43052 11.0351 1.43052H17.2923C17.6842 1.43052 18.0031 1.7494 18.0031 2.14143V3.21463C15.8105 3.73397 13.7694 4.75348 12.0178 6.21632H2.14124C1.74931 6.21632 1.43042 5.89743 1.43042 5.5055V2.14134C1.43042 1.7494 1.74931 1.43042 2.14124 1.43042H7.7072C8.10228 1.43042 8.42241 1.1102 8.42241 0.71521C8.42241 0.320223 8.10228 0 7.7072 0H2.14124C0.960575 0 0 0.960575 0 2.14134V5.5054C0 6.57192 0.783775 7.45859 1.80557 7.62013V39.7936C1.80557 43.8001 5.06512 47.0597 9.07163 47.0597H10.3616C14.3682 47.0597 17.6277 43.8001 17.6277 39.7936V34.336C17.6277 33.941 17.3076 33.6208 16.9125 33.6208C16.5174 33.6208 16.1973 33.941 16.1973 34.336V39.7936C16.1973 43.0114 13.5795 45.6292 10.3616 45.6292H9.07163C5.85385 45.6292 3.23599 43.0114 3.23599 39.7936V35.6253H5.90544C6.30043 35.6253 6.62065 35.3051 6.62065 34.9101C6.62065 34.5151 6.30043 34.1949 5.90544 34.1949H3.23599V31.7235H7.49798C7.89296 31.7235 8.21319 31.4032 8.21319 31.0083C8.21319 30.6133 7.89306 30.2931 7.49798 30.2931H3.23599V27.8218H5.90544C6.30043 27.8218 6.62065 27.5015 6.62065 27.1066C6.62065 26.7116 6.30043 26.3913 5.90544 26.3913H3.23599V23.92H4.51812C4.91311 23.92 5.23333 23.5997 5.23333 23.2048C5.23333 22.8098 4.91311 22.4895 4.51812 22.4895H3.23599V14.7761C4.45423 14.8619 5.67963 15.0432 6.89415 15.3195C6.22786 19.774 7.60507 24.4781 11.0273 27.9003C13.8026 30.6755 17.4924 32.2039 21.4171 32.2039C24.0771 32.2039 26.6288 31.501 28.8614 30.1845L32.1262 33.4493L31.9123 33.6632C31.7782 33.7973 31.7029 33.9792 31.7029 34.1689C31.7029 34.3586 31.7782 34.5405 31.9123 34.6746L40.8766 43.6389C41.7016 44.4639 42.7985 44.9183 43.9655 44.9183C45.1322 44.9183 46.2292 44.4639 47.0542 43.6389L47.5456 43.1475H47.5455C48.3706 42.3225 48.825 41.2256 48.825 40.0587ZM3.23599 13.3413V7.64664H10.5267C8.8604 9.48426 7.74324 11.6452 7.17413 13.9167C5.86711 13.6213 4.54788 13.4283 3.23599 13.3413ZM12.0388 26.8888C6.86754 21.7175 6.86745 13.3033 12.0388 8.13203C14.5438 5.62699 17.8743 4.24739 21.4171 4.24739C24.9599 4.24739 28.2905 5.62699 30.7955 8.13203C33.3007 10.6371 34.6801 13.9678 34.6801 17.5104C34.6801 21.0531 33.3006 24.3838 30.7955 26.8888C28.2905 29.3939 24.9599 30.7735 21.4171 30.7735C17.8743 30.7735 14.5437 29.3939 12.0388 26.8888ZM30.0808 29.3809C30.6876 28.9361 31.2649 28.4423 31.807 27.9002C32.349 27.3582 32.8428 26.7808 33.2876 26.174L36.3446 29.2309L33.1377 32.4378L30.0808 29.3809ZM46.5341 42.1361C46.534 42.1361 46.534 42.1361 46.5341 42.1361L46.0426 42.6275C45.4878 43.1823 44.7501 43.4879 43.9655 43.4879C43.1808 43.4879 42.443 43.1823 41.8882 42.6275L33.4296 34.1689L38.0757 29.5229L46.5342 37.9815C47.089 38.5364 47.3946 39.2741 47.3946 40.0588C47.3946 40.8434 47.0889 41.5812 46.5341 42.1361Z" fill="#1581B9"/>
<path d="M29.0556 9.87151C27.0153 7.83116 24.3024 6.70752 21.417 6.70752C18.5314 6.70752 15.8188 7.83116 13.7783 9.87151C11.738 11.9119 10.6143 14.6246 10.6143 17.5101C10.6143 20.3955 11.738 23.1082 13.7783 25.1486C15.8187 27.1889 18.5314 28.3126 21.417 28.3126C24.3024 28.3126 27.0152 27.1889 29.0556 25.1486C31.096 23.1082 32.2196 20.3955 32.2196 17.5101C32.2196 14.6246 31.0959 11.9119 29.0556 9.87151ZM14.7899 10.883C15.6413 10.0315 16.628 9.36476 17.7011 8.90131V13.7381C16.1463 13.7742 14.6148 13.5682 13.1306 13.1224C13.5632 12.3079 14.1194 11.5535 14.7899 10.883ZM12.0448 17.5101C12.0448 16.4497 12.2203 15.4165 12.5565 14.4428C14.115 14.9288 15.7218 15.1734 17.3538 15.1734C17.4694 15.1734 17.5854 15.17 17.7012 15.1675V26.1188C16.6281 25.6553 15.6414 24.9885 14.79 24.1371C13.0197 22.367 12.0448 20.0135 12.0448 17.5101ZM28.044 24.1371C26.2739 25.9072 23.9203 26.8822 21.417 26.8822C20.6362 26.8822 19.87 26.7873 19.1315 26.603V8.41697C19.87 8.23273 20.6362 8.13784 21.417 8.13784C23.9203 8.13784 26.2739 9.11272 28.044 10.8829C31.6983 14.5372 31.6983 20.4829 28.044 24.1371Z" fill="#1581B9"/>
<path d="M25.7704 14.8203H22.7147C22.3196 14.8203 21.9995 15.1405 21.9995 15.5355C21.9995 15.9305 22.3196 16.2507 22.7147 16.2507H25.7704C26.1655 16.2507 26.4856 15.9305 26.4856 15.5355C26.4856 15.1405 26.1654 14.8203 25.7704 14.8203Z" fill="#1581B9"/>
<path d="M25.7704 17.9912H22.7147C22.3196 17.9912 21.9995 18.3114 21.9995 18.7064C21.9995 19.1014 22.3196 19.4216 22.7147 19.4216H25.7704C26.1655 19.4216 26.4856 19.1014 26.4856 18.7064C26.4856 18.3114 26.1654 17.9912 25.7704 17.9912Z" fill="#1581B9"/>
</svg>
