<svg width="54" height="53" viewBox="0 0 54 53" fill="none" xmlns="http://www.w3.org/2000/svg">
<path d="M49.4982 0H22.5203C21.1292 0 19.9976 1.13166 19.9976 2.52271C19.9976 3.19794 20.2604 3.83175 20.7366 4.30628C21.2131 4.783 21.8465 5.04541 22.5203 5.04541H23.5069V6.63487C23.5069 8.14859 24.7383 9.38004 26.2519 9.38004H34.9925C36.5062 9.38004 37.7377 8.14859 37.7377 6.63487V5.04541H48.5056V24.2356C48.1416 24.0863 47.7435 24.0034 47.3264 24.0034C45.6065 24.0034 44.2073 25.4026 44.2073 27.1223C44.2073 28.8421 45.6065 30.2413 47.3264 30.2413C49.0462 30.2413 50.4454 28.8421 50.4454 27.1223C50.4454 26.5897 50.3109 26.0879 50.0745 25.6489V4.26099C50.0745 3.82767 49.7234 3.47657 49.2901 3.47657H22.5203C22.2657 3.47657 22.0263 3.37731 21.8451 3.19595C21.6654 3.01689 21.5664 2.7778 21.5664 2.5226C21.5664 1.99662 21.9943 1.56874 22.5203 1.56874H49.4982C50.8674 1.56874 51.9812 2.68304 51.9812 4.05275V48.947C51.9812 49.8923 51.2121 50.6613 50.2669 50.6613H2.38046C1.93303 50.6613 1.56885 50.2973 1.56885 49.8496V44.3199H19.847C20.5749 44.3199 21.2779 44.6257 21.7749 45.1581L24.8489 48.4569C24.9973 48.6161 25.2051 48.7066 25.4228 48.7066H46.802C47.2353 48.7066 47.5864 48.3554 47.5864 47.9221V33.1096C47.5864 32.6763 47.2353 32.3252 46.802 32.3252C46.3686 32.3252 46.0175 32.6763 46.0175 33.1096V47.1376H25.7639L23.1383 44.3199H32.0329C33.6942 44.3199 35.0458 42.9684 35.0458 41.3071V34.48H40.3192C41.6319 34.48 42.6998 33.4121 42.6998 32.0994C42.6998 29.2563 40.3868 26.9433 37.5437 26.9433H9.484C9.05068 26.9433 8.69957 27.2944 8.69957 27.7277C8.69957 28.161 9.05068 28.5121 9.484 28.5121H37.5436C39.5216 28.5121 41.1309 30.1214 41.1309 32.0994C41.1309 32.547 40.7668 32.9112 40.3191 32.9112H35.0457V32.2854C35.0457 30.9851 33.9878 29.9272 32.6876 29.9272H17.9057C16.9883 29.9272 16.1524 30.3931 15.6702 31.1732L14.595 32.9112H1.56885V29.3239C1.56885 28.8763 1.93292 28.5121 2.38067 28.5121H5.81938C6.25269 28.5121 6.6038 28.161 6.6038 27.7277C6.6038 27.2944 6.25269 26.9433 5.81938 26.9433H2.38067C1.06797 26.9433 0 28.0111 0 29.3239V49.8496C0 51.1623 1.06786 52.2302 2.38046 52.2302H50.2669C52.0773 52.2302 53.55 50.7573 53.55 48.947V4.05286C53.55 1.81798 51.7323 0 49.4982 0ZM47.3263 28.6725C46.4715 28.6725 45.776 27.9772 45.776 27.1223C45.776 26.2675 46.4715 25.5722 47.3263 25.5722C48.1811 25.5722 48.8764 26.2675 48.8764 27.1223C48.8764 27.9772 48.1811 28.6725 47.3263 28.6725ZM36.1688 6.63487C36.1688 7.28353 35.6411 7.81119 34.9925 7.81119H26.2519C25.6034 7.81119 25.0757 7.28353 25.0757 6.63487V5.04541H36.1688V6.63487ZM33.4768 32.2853V32.9111H31.1286V31.496H32.6876C33.1228 31.496 33.4768 31.8501 33.4768 32.2853ZM27.5594 32.9112V31.4961H29.5597V32.9112H27.5594ZM23.9903 32.9112V31.4961H25.9906V32.9112H23.9903ZM20.4212 32.9112V31.4961H22.4214V32.9112H20.4212ZM17.0044 31.9983C17.1989 31.6837 17.5358 31.496 17.9057 31.496H18.8523V32.9111H16.4398L17.0044 31.9983ZM33.4768 34.48V41.3071C33.4768 42.1033 32.8291 42.7511 32.0328 42.7511H1.56885V34.48H33.4768Z" fill="#1581B9"/>
<path d="M22.1803 16.0886C21.874 16.395 21.874 16.8916 22.1803 17.198C24.5079 19.5254 27.565 20.6891 30.6224 20.6891C33.6796 20.6891 36.7368 19.5254 39.0644 17.198C39.3707 16.8915 39.3707 16.3949 39.0644 16.0886C38.7579 15.7823 38.2613 15.7823 37.955 16.0886C33.9122 20.1318 27.333 20.132 23.2898 16.0886C22.9834 15.7823 22.4868 15.7823 22.1803 16.0886Z" fill="#1581B9"/>
<path d="M24.2985 13.9704C23.9921 14.2769 23.9921 14.7734 24.2985 15.0798C25.9852 16.7664 28.2311 17.6954 30.6223 17.6954C33.0136 17.6954 35.2595 16.7664 36.9462 15.0798C37.2526 14.7733 37.2526 14.2767 36.9462 13.9704C36.6398 13.6642 36.1432 13.6642 35.8368 13.9704C32.9616 16.8458 28.283 16.8458 25.408 13.9704C25.1015 13.6642 24.6049 13.6642 24.2985 13.9704Z" fill="#1581B9"/>
<path d="M34.828 12.9616C35.1343 12.6552 35.1343 12.1586 34.828 11.8522C34.5216 11.546 34.025 11.546 33.7186 11.8522C32.0114 13.5596 29.2333 13.5596 27.5263 11.8522C27.2198 11.546 26.7232 11.546 26.4169 11.8522C26.1105 12.1587 26.1105 12.6553 26.4169 12.9616C27.5403 14.0849 29.0338 14.7036 30.6224 14.7036C32.2111 14.7037 33.7046 14.0849 34.828 12.9616Z" fill="#1581B9"/>
<path d="M19.0321 47.7717C19.4653 47.7717 19.8165 47.4205 19.8165 46.9873C19.8165 46.5541 19.4653 46.2029 19.0321 46.2029C18.5989 46.2029 18.2477 46.5541 18.2477 46.9873C18.2477 47.4205 18.5989 47.7717 19.0321 47.7717Z" fill="#1581B9"/>
<path d="M4.16321 47.7717C4.59643 47.7717 4.94763 47.4205 4.94763 46.9873C4.94763 46.5541 4.59643 46.2029 4.16321 46.2029C3.72998 46.2029 3.37878 46.5541 3.37878 46.9873C3.37878 47.4205 3.72998 47.7717 4.16321 47.7717Z" fill="#1581B9"/>
</svg>
