<svg width="48" height="48" viewBox="0 0 48 48" fill="none" xmlns="http://www.w3.org/2000/svg">
<path d="M46.7867 22.7615L40.2947 18.4523C39.9762 18.2409 39.5687 18.2215 39.2317 18.4026C38.8947 18.5834 38.6853 18.9333 38.6853 19.3158V21.1265H28.9509C30.442 18.4028 32.7375 16.2014 35.563 14.8221L36.3858 14.4204L37.1259 16.0438C37.2846 16.3918 37.6202 16.6233 38.0019 16.6481C38.3839 16.6723 38.7463 16.4864 38.9485 16.1618L43.0562 9.56739C43.2402 9.27189 43.2638 8.90635 43.1196 8.58963C42.9752 8.2729 42.6836 8.05096 42.3398 7.99614L34.6678 6.77161C34.2899 6.71135 33.9117 6.86306 33.68 7.16742C33.4484 7.47168 33.4031 7.877 33.5617 8.22491L34.3211 9.89075L32.2833 10.9245C29.7908 12.1888 27.6779 14.0627 26.1233 16.3431V8.56434H27.934C28.3165 8.56434 28.6664 8.35494 28.8472 8.01792C29.028 7.68089 29.0089 7.27355 28.7975 6.95498L24.4885 0.463271C24.2959 0.173127 23.9732 0 23.625 0C23.2768 0 22.9541 0.173127 22.7615 0.463271L18.4524 6.95526C18.2409 7.27382 18.2218 7.68126 18.4027 8.0182C18.5835 8.35522 18.9334 8.56462 19.3159 8.56462H21.1266V10.2012C21.1266 10.5834 21.4364 10.8932 21.8186 10.8932C22.2009 10.8932 22.5107 10.5834 22.5107 10.2012V8.21698C22.5107 7.64555 22.0458 7.18062 21.4744 7.18062H19.964L23.625 1.66501L27.286 7.18062H25.7757C25.2043 7.18062 24.7394 7.64555 24.7394 8.21698V21.1265H22.5106V13.4035C22.5106 13.0213 22.2008 12.7114 21.8185 12.7114C21.4363 12.7114 21.1265 13.0213 21.1265 13.4035V16.3436C19.5715 14.0622 17.4587 12.1889 14.9665 10.9248L12.9287 9.89103L13.6881 8.22528C13.8467 7.87728 13.8014 7.47196 13.5698 7.1677C13.3382 6.86325 12.9592 6.71162 12.5819 6.77188L4.91003 7.99632C4.56627 8.05123 4.27474 8.27309 4.13031 8.58981C3.98598 8.90653 4.0097 9.27207 4.19362 9.56766L8.30133 16.1619C8.50352 16.4866 8.86399 16.6725 9.2479 16.6482C9.62959 16.6235 9.96523 16.392 10.124 16.0439L10.864 14.4205L11.6868 14.8222C14.5123 16.2015 16.8079 18.4029 18.2991 21.1266H8.56462V19.3159C8.56462 18.9334 8.35522 18.5835 8.0182 18.4027C7.68135 18.2218 7.27382 18.2409 6.95526 18.4524L0.463271 22.7615C0.173127 22.9541 0 23.2768 0 23.625C0 23.9732 0.173127 24.2959 0.463271 24.4885L6.95535 28.7977C7.27392 29.0091 7.68126 29.0284 8.01829 28.8474C8.35531 28.6666 8.56471 28.3167 8.56471 27.9342V26.1235H18.2992C16.8081 28.8471 14.5126 31.0486 11.6871 32.4279L10.8643 32.8296L10.1242 31.2061C9.9655 30.8581 9.62986 30.6266 9.24817 30.6019C8.86685 30.5775 8.50371 30.7635 8.3016 31.0881L4.1939 37.6825C4.00988 37.978 3.98617 38.3436 4.13059 38.6603C4.27502 38.977 4.56655 39.199 4.9104 39.2538L12.5821 40.4783C12.637 40.4871 12.6919 40.4914 12.7463 40.4914C13.0667 40.4914 13.372 40.3428 13.5701 40.0828C13.8018 39.7783 13.8471 39.373 13.6885 39.025L12.9291 37.3592L14.9669 36.3254C17.4583 35.0616 19.5725 33.1903 21.1268 30.9112V38.6856H19.3162C18.9337 38.6856 18.5837 38.895 18.403 39.232C18.2222 39.569 18.2413 39.9764 18.4527 40.2949L22.7619 46.787C22.9545 47.0771 23.2772 47.2503 23.6254 47.2503C23.9736 47.2503 24.2963 47.0771 24.4889 46.787L28.798 40.2949C29.0096 39.9763 29.0287 39.5689 28.8478 39.232C28.667 38.895 28.3171 38.6856 27.9345 38.6856H26.1239V30.91C27.6788 33.1903 29.7926 35.0615 32.2838 36.3252L34.3217 37.359L33.5623 39.0247C33.4036 39.3728 33.4489 39.7781 33.6807 40.0826C33.8787 40.3427 34.184 40.4912 34.5043 40.4912C34.5588 40.4912 34.6137 40.4869 34.6685 40.4781L42.3404 39.2536C42.6842 39.1987 42.9757 38.9768 43.1201 38.6601C43.2645 38.3434 43.2408 37.9778 43.0567 37.6822L38.949 31.088C38.7467 30.7633 38.3834 30.5774 38.0025 30.6017C37.6208 30.6264 37.2851 30.8579 37.1264 31.206L36.3864 32.8294L35.5636 32.4278C35.0661 32.1849 34.5769 31.9117 34.1097 31.6158C33.7868 31.4114 33.3592 31.5074 33.1547 31.8303C32.9503 32.1532 33.0464 32.5806 33.3692 32.7852C33.8793 33.1081 34.4133 33.4064 34.9564 33.6716L36.1001 34.2299C36.3498 34.3517 36.643 34.3679 36.9046 34.2741C37.1661 34.1802 37.3823 33.9814 37.4977 33.7285L38.117 32.3699L41.6052 37.9694L35.0904 39.0093L35.7193 37.6297C35.9506 37.1224 35.7423 36.5276 35.2452 36.2756L32.9099 35.091C29.9412 33.5851 27.5571 31.1376 26.124 28.1448V26.1234H27.3936C28.2344 27.8419 29.3586 29.3871 30.7502 30.7284C31.0257 30.9936 31.4637 30.9855 31.7288 30.7104C31.9941 30.4352 31.986 29.9971 31.7108 29.7318C30.603 28.664 29.6804 27.4548 28.952 26.1234H38.686V27.9341C38.686 28.3166 38.8954 28.6665 39.2325 28.8473C39.3862 28.9298 39.5545 28.9707 39.7225 28.9707C39.9227 28.9707 40.1222 28.9126 40.2955 28.7976L46.7876 24.4884C47.0777 24.2958 47.2508 23.9731 47.2508 23.6249C47.25 23.2768 47.077 22.9541 46.7867 22.7615ZM26.1234 19.105C27.5551 16.1139 29.9397 13.6654 32.9093 12.159L35.2444 10.9745C35.7418 10.7224 35.9501 10.1276 35.7188 9.62027L35.0899 8.24069L41.6046 9.28047L38.1164 14.8801L37.4971 13.5213C37.3818 13.2685 37.1656 13.0697 36.904 12.9758C36.6426 12.8822 36.3493 12.8982 36.0996 13.02L34.9559 13.5783C31.6443 15.1949 28.9998 17.846 27.3925 21.1265H26.1234V19.105ZM12.2941 13.5784L11.1504 13.0201C10.9007 12.8983 10.6075 12.882 10.346 12.9759C10.0845 13.0699 9.86824 13.2686 9.75288 13.5215L9.13355 14.8802L5.64545 9.28056L12.1601 8.24079L11.5312 9.62036C11.2999 10.1277 11.5082 10.7225 12.0054 10.9745L14.3407 12.159C17.3094 13.665 19.6935 16.1124 21.1266 19.1052V21.1266H19.8575C18.2503 17.8461 15.6057 15.195 12.2941 13.5784ZM14.3407 35.091L12.0056 36.2755C11.5082 36.5276 11.2999 37.1224 11.5312 37.6297L12.1601 39.0093L5.64536 37.9694L9.13355 32.3699L9.75288 33.7286C9.86824 33.9814 10.0844 34.1802 10.346 34.2741C10.6076 34.3679 10.9008 34.3518 11.1504 34.2299L12.2941 33.6716C15.6057 32.055 18.25 29.4038 19.8572 26.1234H21.1266V28.1449C19.6949 31.136 17.3102 33.5845 14.3407 35.091ZM27.286 40.0694L23.625 45.585L19.964 40.0694H21.4743C22.0457 40.0694 22.5106 39.6045 22.5106 39.033V26.1234H24.7394V39.0329C24.7394 39.6044 25.2043 40.0693 25.7757 40.0693H27.286V40.0694ZM40.0694 27.286V25.7757C40.0694 25.2043 39.6045 24.7394 39.033 24.7394H8.21698C7.64555 24.7394 7.18062 25.2043 7.18062 25.7757V27.286L1.66501 23.625L7.18062 19.964V21.4743C7.18062 22.0457 7.64555 22.5106 8.21698 22.5106H39.0329C39.6044 22.5106 40.0693 22.0457 40.0693 21.4743V19.964L45.585 23.625L40.0694 27.286Z" fill="#1581B9"/>
</svg>
