<svg width="45" height="45" viewBox="0 0 45 45" fill="none" xmlns="http://www.w3.org/2000/svg">
<path d="M44.1 19.5523V16.7007L41.7835 14.3844H33.7641V6.45996H35.0561V2.96245L32.0936 0H12.0064L9.04395 2.96245V6.45996H10.3359V9.04395H11.6279V6.45996H32.4721V40.224H31.1801V37.64H26.572V31.8261H27.8639V30.5341H16.2361V31.8261H17.528V37.64H12.9199V40.224H11.6279V10.3359H10.3359V14.3844H2.31646L0 16.7008V19.5524H1.29199V42.808H0V44.1H37.64V42.808H35.0561V40.224H33.7641V19.5523H41.516V42.808H38.932V44.1H44.1V42.808H42.808V19.5523H44.1ZM10.3359 3.49751L12.5415 1.29199H31.5585L33.7641 3.49751V5.16797H10.3359V3.49751ZM25.28 31.826V37.6399H22.696V31.826H25.28ZM18.82 31.826H21.404V37.6399H18.82V31.826ZM14.2119 38.9319H29.8881V40.2239H14.2119V38.9319ZM1.29199 17.236L2.85151 15.6764H10.3359V18.2604H1.29199V17.236ZM2.58398 19.5523H10.3359V40.224H9.04395V42.808H2.58398V19.5523ZM10.3359 42.808V41.516H33.7641V42.808H10.3359ZM33.7641 15.6763H41.2485L42.808 17.236V18.2604H33.7641V15.6763Z" fill="#1581B9"/>
<path d="M29.8882 7.75195H31.1802V9.04395H29.8882V7.75195Z" fill="#1581B9"/>
<path d="M27.3042 7.75195H28.5962V9.04395H27.3042V7.75195Z" fill="#1581B9"/>
<path d="M4.52197 38.9321H8.39795V31.1802H4.52197V38.9321ZM5.81396 37.6401V35.7021H7.10596V37.6401H5.81396ZM7.10596 32.4722V34.4102H5.81396V32.4722H7.10596Z" fill="#1581B9"/>
<path d="M4.52197 22.1362V29.8881H8.39795V22.1362H4.52197ZM7.10596 23.4282V25.3662H5.81396V23.4282H7.10596ZM5.81396 28.5961V26.6581H7.10596V28.5961H5.81396Z" fill="#1581B9"/>
<path d="M35.7019 38.9321H39.5779V31.1802H35.7019V38.9321ZM36.9939 37.6401V35.7021H38.2859V37.6401H36.9939ZM38.2859 32.4722V34.4102H36.9939V32.4722H38.2859Z" fill="#1581B9"/>
<path d="M39.5779 22.1362H35.7019V29.8881H39.5779V22.1362ZM38.2859 23.4282V25.3662H36.9939V23.4282H38.2859ZM36.9939 28.5961V26.6581H38.2859V28.5961H36.9939Z" fill="#1581B9"/>
<path d="M17.3768 26.8629L18.5042 28.5873L22.05 24.0549L25.5959 28.5872L26.7232 26.8628L28.7883 26.0376L24.6436 20.7399L26.8625 17.9038C27.1693 17.5613 28.4519 15.9865 28.124 13.9409C27.8588 12.2867 26.623 10.8259 24.4508 9.59893L24.3029 9.51538H19.7971L19.6492 9.59893C17.4771 10.8259 16.2413 12.2867 15.976 13.9408C15.648 15.9864 16.9307 17.5612 17.2375 17.9037L19.4565 20.7399L15.3118 26.0376L17.3768 26.8629ZM26.7093 25.4772L25.8651 25.8146L25.5018 26.3702L22.8702 23.0066L23.8232 21.7884L26.7093 25.4772ZM19.0835 12.7115C19.1926 11.8287 19.8906 11.0974 20.2062 10.8075H23.8934C24.2081 11.0976 24.9049 11.8291 25.0157 12.7056C25.0347 12.8554 25.0352 13.0031 25.0184 13.1492C24.6788 12.8352 24.2174 12.6313 23.6552 12.6313H20.4449C19.8828 12.6313 19.4213 12.8353 19.0816 13.1492C19.065 13.005 19.0653 12.8593 19.0835 12.7115ZM24.3577 14.4756L22.05 17.4251L19.7424 14.4756C19.8056 14.2396 19.9915 13.9232 20.4449 13.9232H23.6552C24.1086 13.9232 24.2945 14.2396 24.3577 14.4756ZM18.2411 17.0898L18.21 17.0529C18.086 16.9168 17.0059 15.6788 17.2517 14.1455C17.3231 13.7005 17.499 13.2677 17.7784 12.8483C17.7541 13.6231 18.0161 14.366 18.5595 15.0607L21.2298 18.4736L20.2767 19.6918L18.2411 17.0898ZM25.5404 15.0606C26.0839 14.3659 26.3459 13.6231 26.3216 12.8482C26.6009 13.2675 26.7768 13.7004 26.8481 14.1454C27.094 15.6788 26.0139 16.9167 25.89 17.0529L25.8737 17.0708L18.5982 26.3701L18.2349 25.8145L17.3907 25.4771L25.5404 15.0606Z" fill="#1581B9"/>
</svg>
