<svg width="53" height="54" viewBox="0 0 53 54" fill="none" xmlns="http://www.w3.org/2000/svg">
<path d="M52.542 25.3965V15.4692C52.542 11.2544 49.7514 7.32537 44.6843 4.40585C39.7533 1.56466 33.214 0 26.271 0C20.1944 0 14.2751 1.23803 9.60334 3.48619C9.2129 3.67403 9.0488 4.1428 9.23664 4.53313C9.42449 4.92357 9.89336 5.08788 10.2836 4.89983C14.7474 2.75186 20.4251 1.56885 26.271 1.56885C32.9434 1.56885 39.2046 3.05915 43.9011 5.7652C48.4616 8.39281 50.9731 11.839 50.9731 15.4692V20.1076C49.9832 18.4881 48.5412 16.9695 46.6903 15.6277C46.3395 15.3733 45.8491 15.4517 45.5948 15.8024C45.3405 16.1532 45.4188 16.6436 45.7695 16.8978C47.6337 18.2493 49.0154 19.7421 49.8851 21.3238L46.4724 22.3406C46.1399 22.4396 45.912 22.7454 45.912 23.0924V27.7008C45.912 28.0478 46.1399 28.3536 46.4724 28.4526L49.8704 29.465C48.4328 32.0683 45.6404 34.4188 41.8013 36.1796V25.3532C42.2602 25.5827 42.7061 25.8229 43.1379 26.0744C43.5137 26.2932 43.9933 26.1642 44.2105 25.7913C44.4285 25.417 44.3019 24.9367 43.9275 24.7187C39.2128 21.9725 32.9424 20.4603 26.271 20.4603C19.5996 20.4603 13.3291 21.9727 8.61444 24.7188C8.24011 24.9368 8.11335 25.4171 8.33142 25.7914C8.54949 26.1658 9.02977 26.2925 9.40409 26.0745C9.83584 25.823 10.2818 25.5827 10.7406 25.3533V36.1795C6.90157 34.4187 4.10913 32.0683 2.67154 29.4649L6.06956 28.4525C6.40205 28.3535 6.62995 28.0478 6.62995 27.7007V23.0923C6.62995 22.7454 6.40205 22.4395 6.06956 22.3405L2.65951 21.3245C3.80644 19.2361 5.83528 17.3093 8.641 15.6928C11.7607 13.8953 15.5711 12.6351 19.7335 11.9909L21.8826 16.1213C22.0176 16.3808 22.2859 16.5436 22.5784 16.5436H29.9636C30.2562 16.5436 30.5244 16.3808 30.6595 16.1213L32.8061 11.9957C36.4746 12.5664 39.8895 13.6148 42.7741 15.0823C43.1602 15.2788 43.6325 15.1251 43.8289 14.7388C44.0253 14.3527 43.8716 13.8803 43.4854 13.684C38.3257 11.0591 32.0595 9.92767 26.271 9.92767C19.328 9.92767 12.7887 11.4923 7.85773 14.3334C5.01404 15.9718 2.88773 17.9282 1.56885 20.0746V15.4692C1.56885 12.2778 3.57415 9.14921 7.21544 6.65955C7.57304 6.41502 7.66476 5.9269 7.42023 5.5693C7.17581 5.21171 6.68768 5.11988 6.32999 5.36452C2.24805 8.15539 0 11.744 0 15.469V25.3964C0 28.169 1.24389 30.7033 3.13864 32.7715C4.979 34.7802 7.60044 36.5446 10.7406 37.8952V52.7656C10.7406 53.1988 11.0919 53.55 11.5251 53.55C11.9583 53.55 12.3095 53.1988 12.3095 52.7656V24.6339C14.0594 23.8982 15.9639 23.3097 17.9774 22.8797C17.8136 23.581 17.7302 24.3027 17.7302 25.0377C17.7302 25.8873 17.8427 26.7245 18.0642 27.5313C17.4787 28.898 18.2124 30.5788 19.5655 31.3097C20.0079 31.5487 20.4754 31.6697 20.9296 31.6711C21.1655 32.6503 21.9242 33.6401 22.7088 34.3146V37.1285L16.535 38.6758C15.2233 39.0055 14.3071 40.1798 14.3071 41.5315V52.7656C14.3071 53.1988 14.6583 53.55 15.0915 53.55C15.5247 53.55 15.8759 53.1988 15.8759 52.7656V41.5316C15.8759 40.9002 16.3042 40.3516 16.917 40.1975L22.2444 38.8622L25.2848 44.5694C25.4793 44.9346 25.8573 45.1615 26.2711 45.1615C26.6848 45.1615 27.0628 44.9346 27.2574 44.5694L30.2978 38.8622L35.6247 40.1974C36.2379 40.3516 36.6662 40.9002 36.6662 41.5316V52.7656C36.6662 53.1988 37.0174 53.55 37.4506 53.55C37.8838 53.55 38.235 53.1988 38.235 52.7656V41.5316C38.235 40.18 37.3188 39.0056 36.0065 38.6758L29.8333 37.1286V34.3148C30.6176 33.6403 31.3764 32.6505 31.6124 31.6712C32.0664 31.6699 32.534 31.5488 32.9764 31.3098C34.3333 30.5768 35.0594 28.8889 34.4777 27.5314C34.6993 26.7246 34.8118 25.8875 34.8118 25.0379C34.8118 24.3028 34.7283 23.5811 34.5645 22.8799C36.5781 23.3099 38.4826 23.8983 40.2325 24.6342V52.7656C40.2325 53.1988 40.5837 53.55 41.0169 53.55C41.4501 53.55 41.8013 53.1988 41.8013 52.7656V37.8953C47.2368 35.5576 52.542 31.2847 52.542 25.3965ZM31.1533 11.7732L29.4874 14.9749H23.0545L21.3865 11.7691C22.9774 11.5889 24.6115 11.4965 26.2711 11.4965C27.9231 11.4965 29.5574 11.5908 31.1533 11.7732ZM5.061 23.677V27.1159L2.02496 28.0205C1.72594 27.1616 1.56885 26.2834 1.56885 25.3964C1.56885 24.5065 1.72071 23.628 2.01566 22.7696L5.061 23.677ZM19.4429 28.7006C19.3735 28.2097 19.6184 27.8738 19.8919 27.7588C20.1924 27.6323 20.5408 27.7465 20.8542 28.0629V30.0961C20.6779 30.0823 20.4915 30.0269 20.311 29.9294C19.8405 29.6752 19.5159 29.2157 19.4429 28.7006ZM26.271 43.0841L23.7817 38.4116C24.0849 38.2105 24.2775 37.8674 24.2775 37.4871V35.1981C24.8607 35.3641 25.5653 35.4475 26.2708 35.4475C26.976 35.4475 27.681 35.364 28.2645 35.198V37.4871C28.2645 37.867 28.4567 38.2099 28.7604 38.4112L26.271 43.0841ZM30.1188 31.0718C30.1188 31.9036 28.8648 33.27 28.1288 33.5877C27.226 33.9765 25.316 33.9764 24.4138 33.5879C23.6808 33.2715 22.4231 31.908 22.4231 31.0717V26.0388C22.4231 25.5559 22.816 25.1631 23.2989 25.1631H23.5823C24.1325 25.8245 24.8331 26.3282 25.6198 26.626C26.7596 27.0584 28.2697 27.1394 30.1188 26.5154V31.0718ZM33.099 28.7004C33.026 29.2158 32.7015 29.6753 32.2308 29.9295C32.0504 30.027 31.8639 30.0826 31.6877 30.0964V28.0631C32.001 27.7466 32.3496 27.6325 32.65 27.7589C32.9234 27.8738 33.1684 28.2097 33.099 28.7004ZM33.2429 25.0378C33.2429 25.4533 33.2102 25.8649 33.1466 26.2696C32.7248 26.1189 32.2119 26.0809 31.6877 26.2479V25.9018C31.6877 25.5232 31.5007 25.1701 31.1873 24.9573C30.8753 24.7453 30.4798 24.7016 30.1295 24.8405C29.7445 24.9931 29.3915 25.1102 29.0499 25.1988C28.3002 25.3937 27.1929 25.5449 26.1758 25.1591C25.6054 24.9432 25.0793 24.5464 24.6944 24.0419C24.4806 23.7617 24.1408 23.5943 23.7855 23.5943H23.299C21.951 23.5943 20.8544 24.6909 20.8544 26.0389V26.2479C20.3301 26.0809 19.8172 26.1189 19.3955 26.2696C19.3319 25.8649 19.2991 25.4533 19.2991 25.0378C19.2991 24.1821 19.4339 23.3492 19.6981 22.5551C21.8061 22.2088 24.013 22.029 26.2712 22.029C28.5294 22.029 30.7362 22.2088 32.8442 22.5551C33.1081 23.3492 33.2429 24.1821 33.2429 25.0378ZM47.481 27.1159V23.677L50.5286 22.769C50.8228 23.6271 50.9732 24.5054 50.9732 25.3965C50.9732 26.2834 50.8161 27.1616 50.5171 28.0206L47.481 27.1159Z" fill="#1581B9"/>
<path d="M33.0115 44.377C32.5783 44.377 32.2271 44.7282 32.2271 45.1614V52.7654C32.2271 53.1986 32.5783 53.5498 33.0115 53.5498C33.4447 53.5498 33.7959 53.1986 33.7959 52.7654V45.1614C33.7959 44.7282 33.4447 44.377 33.0115 44.377Z" fill="#1581B9"/>
<path d="M19.5303 44.377C19.0971 44.377 18.7458 44.7282 18.7458 45.1614V52.7654C18.7458 53.1986 19.0971 53.5498 19.5303 53.5498C19.9635 53.5498 20.3147 53.1986 20.3147 52.7654V45.1614C20.3147 44.7282 19.9635 44.377 19.5303 44.377Z" fill="#1581B9"/>
</svg>
