<svg width="54" height="54" viewBox="0 0 54 54" fill="none" xmlns="http://www.w3.org/2000/svg">
<path d="M50.5458 20.9948C48.7603 17.9886 46.26 15.4535 43.2867 13.6259L43.9439 12.1799L43.3154 11.8268C41.2068 10.6424 38.9437 9.80278 36.5888 9.33146C36.567 9.32696 36.5025 9.31251 36.4808 9.31618C35.6998 7.59045 33.9629 6.38618 31.9487 6.38618C29.2067 6.38618 26.9759 8.61705 26.9759 11.359C26.9759 14.101 29.2067 16.3319 31.9487 16.3319C33.6993 16.3319 35.2404 15.4218 36.1267 14.0506C37.9229 14.4584 39.6387 15.1322 41.2332 16.0579L41.9834 16.4934L42.6306 15.0694C48.4176 18.7056 51.9793 25.1008 51.9793 31.9661C51.9793 42.9631 43.0326 51.9098 32.0356 51.9098C21.0097 51.9098 12.0395 42.9631 12.0395 31.9661V26.1468C14 26.0268 15.9383 25.4579 17.6894 24.4385C18.3249 24.0687 18.7436 23.4379 18.8384 22.7082C18.8817 22.3741 18.8535 22.0429 18.7611 21.7317C21.1498 19.5963 22.5087 16.5733 22.5087 13.3478V5.49599C22.5087 4.19719 21.452 3.14043 20.1531 3.14043H18.321V2.35556C18.321 1.05676 17.2644 0 15.9655 0C14.6665 0 13.6099 1.05665 13.6099 2.35556V5.4963C13.6099 6.7951 14.6665 7.85186 15.9655 7.85186C17.2644 7.85186 18.321 6.7951 18.321 5.4963V4.7108H20.1531C20.5861 4.7108 20.9383 5.06298 20.9383 5.49599V13.3478C20.9383 16.0715 19.8117 18.627 17.8271 20.4582C17.0888 19.9572 16.1093 19.9097 15.311 20.3727C12.8114 21.8231 9.70312 21.8231 7.1989 20.373C6.39948 19.9099 5.41883 19.9575 4.68076 20.4588C2.69664 18.6331 1.57037 16.0773 1.57037 13.3478V5.49599C1.57037 5.06298 1.92255 4.7108 2.35556 4.7108H4.18766V5.4963C4.18766 6.7951 5.24431 7.85186 6.54322 7.85186C7.84212 7.85186 8.89878 6.7951 8.89878 5.4963V2.35556C8.89878 1.05676 7.84212 0 6.54322 0C5.24431 0 4.18766 1.05665 4.18766 2.35556V3.14043H2.35556C1.05665 3.14043 0 4.19719 0 5.49599V13.3478C0 16.5797 1.35879 19.603 3.74743 21.7327C3.6553 22.0435 3.62714 22.3745 3.67048 22.7082C3.76523 23.4381 4.1841 24.0688 4.81947 24.4385C6.57054 25.4578 8.5089 26.0268 10.4693 26.1468V31.9662C10.4693 43.8291 20.1439 53.4803 32.0357 53.4803C43.8986 53.4803 53.5498 43.8291 53.5498 31.9662C53.5497 28.0972 52.5109 24.3034 50.5458 20.9948ZM31.9487 14.7615C30.0726 14.7615 28.5462 13.2352 28.5462 11.359C28.5462 9.48285 30.0726 7.95655 31.9487 7.95655C33.8248 7.95655 35.3512 9.48285 35.3512 11.359C35.3512 13.2352 33.8248 14.7615 31.9487 14.7615ZM41.2637 14.2816C39.8387 13.5352 38.3321 12.9682 36.7675 12.588C36.8678 12.1948 36.9215 11.783 36.9215 11.3589C36.9215 11.2406 36.9159 11.1237 36.9077 11.0075C38.6434 11.4098 40.3218 12.0283 41.9127 12.8537L41.2637 14.2816ZM16.7506 5.4963C16.7506 5.92931 16.3985 6.28149 15.9655 6.28149C15.5324 6.28149 15.1803 5.92931 15.1803 5.4963V2.35556C15.1803 1.92255 15.5324 1.57037 15.9655 1.57037C16.3985 1.57037 16.7506 1.92255 16.7506 2.35556V5.4963ZM5.75803 2.35556C5.75803 1.92255 6.11021 1.57037 6.54322 1.57037C6.97622 1.57037 7.3284 1.92255 7.3284 2.35556V5.4963C7.3284 5.92931 6.97622 6.28149 6.54322 6.28149C6.11021 6.28149 5.75803 5.92931 5.75803 5.4963V2.35556ZM5.60937 23.0814C5.39831 22.9585 5.25928 22.7488 5.22766 22.5059C5.19594 22.2619 5.2775 22.0222 5.45128 21.8484C5.60037 21.6992 5.80033 21.6218 6.00416 21.6218C6.1433 21.6218 6.28411 21.6579 6.41183 21.7319C9.40203 23.4635 13.114 23.463 16.0989 21.731C16.4124 21.5493 16.8063 21.5976 17.0573 21.8485C17.2311 22.0223 17.3126 22.2619 17.2809 22.5059C17.2494 22.7487 17.1103 22.9585 16.8992 23.0814C13.4177 25.1084 9.09162 25.1082 5.60937 23.0814Z" fill="#1581B9"/>
<path d="M31.9047 18.8198C24.9264 18.8198 19.1827 24.2026 18.6052 31.034L17.9077 30.3365L16.7974 31.447L19.4464 34.096L22.0954 31.447L20.985 30.3365L20.1714 31.1502C20.6892 25.1306 25.7533 20.3902 31.9047 20.3902C36.9555 20.3902 41.439 23.602 43.0614 28.3824L44.5485 27.8778C42.7098 22.4599 37.6286 18.8198 31.9047 18.8198Z" fill="#1581B9"/>
<path d="M20.914 36.4089L19.449 36.9744C20.409 39.4615 22.0762 41.5861 24.2705 43.1185C26.5163 44.6869 29.1562 45.516 31.9049 45.516C38.742 45.516 44.394 40.3485 45.163 33.7142L46.1112 34.6625L47.2215 33.552L44.4678 30.7983L41.7141 33.552L42.8245 34.6625L43.5497 33.9372C42.6936 39.595 37.7978 43.9457 31.9047 43.9457C27.071 43.9457 22.6541 40.9169 20.914 36.4089Z" fill="#1581B9"/>
<path d="M28.4156 33.4565C28.5496 33.3363 28.6815 33.2178 28.8076 33.1001C30.3131 31.9049 31.0504 30.0182 30.5615 28.6011C30.2015 27.5575 29.2702 26.959 28.0062 26.959C26.5144 26.959 25.3008 28.1727 25.3008 29.6644H26.8712C26.8712 29.0385 27.3804 28.5294 28.0062 28.5294C28.8757 28.5294 29.0272 28.9686 29.077 29.1131C29.3148 29.8025 28.9065 31.0281 27.8113 31.8858C27.6627 32.0161 27.5204 32.1522 27.3667 32.2877C26.4665 33.0955 25.3464 34.1007 25.3464 35.616V36.4012H30.5593V34.8308H27.1437C27.4184 34.3514 27.9077 33.9122 28.4156 33.4565Z" fill="#1581B9"/>
<path d="M32.1492 27.1777V33.7387H35.8866V36.1812H37.4569V33.7387H39.503V32.1684H37.4569V27.1777H35.8866V32.1684H33.7195V27.1777H32.1492Z" fill="#1581B9"/>
</svg>
