<svg width="49" height="56" viewBox="0 0 49 56" fill="none" xmlns="http://www.w3.org/2000/svg">
<path d="M11.1503 18.1042L12.7154 18.4173C14.8224 18.8384 16.7984 17.2288 16.7984 15.07V10.716C16.7984 7.59578 14.2598 5.05713 11.1395 5.05713C8.01925 5.05713 5.48071 7.59567 5.48071 10.716V11.1883C5.48071 14.5386 7.86514 17.4471 11.1503 18.1042ZM7.10868 10.716C7.10868 8.49344 8.91702 6.68509 11.1396 6.68509C13.3622 6.68509 15.1706 8.49344 15.1706 10.716V15.07C15.1706 16.1978 14.1386 17.0419 13.0348 16.8209L11.4697 16.5078C8.94275 16.0025 7.10868 13.7652 7.10868 11.1882V10.716Z" fill="#1581B9"/>
<path d="M15.9845 41.0352H9.24196C8.79243 41.0352 8.42798 41.3996 8.42798 41.8491C8.42798 42.2987 8.79243 42.6631 9.24196 42.6631H15.9845C16.434 42.6631 16.7984 42.2987 16.7984 41.8491C16.7984 41.3996 16.434 41.0352 15.9845 41.0352Z" fill="#1581B9"/>
<path d="M29.4696 11.7993C29.02 11.7993 28.6556 12.1638 28.6556 12.6133V13.4849H27.784C27.3344 13.4849 26.97 13.8494 26.97 14.2989C26.97 14.7484 27.3344 15.1129 27.784 15.1129H28.6556V15.9845C28.6556 16.434 29.02 16.7985 29.4696 16.7985C29.9191 16.7985 30.2835 16.434 30.2835 15.9845V15.1129H31.1551C31.6047 15.1129 31.9691 14.7484 31.9691 14.2989C31.9691 13.8494 31.6047 13.4849 31.1551 13.4849H30.2835V12.6133C30.2835 12.1638 29.9191 11.7993 29.4696 11.7993Z" fill="#1581B9"/>
<path d="M45.2982 48.883H42.0829V0.813983C42.0829 0.364447 41.7185 0 41.2689 0C40.8194 0 40.455 0.364447 40.455 0.813983V3.37119H25.5365C25.0292 3.37119 24.5522 3.17367 24.1934 2.81497L23.3025 1.92404C22.9846 1.60615 22.4692 1.60615 22.1514 1.92404C21.8335 2.24193 21.8335 2.75734 22.1514 3.07512L23.0423 3.96605C23.7085 4.63232 24.5943 4.99916 25.5365 4.99916H27.1267C27.0253 5.2707 26.9699 5.56439 26.9699 5.87077V6.80001H26.0406C24.6941 6.80001 23.5987 7.89542 23.5987 9.24196V10.6851C23.5987 11.1346 23.9631 11.4991 24.4127 11.4991C24.8622 11.4991 25.2266 11.1346 25.2266 10.6851V9.24207C25.2266 8.79319 25.5917 8.42809 26.0406 8.42809H32.8985C33.3474 8.42809 33.7125 8.79319 33.7125 9.24207V19.4135C33.7125 19.8624 33.3474 20.2275 32.8985 20.2275H26.0406C25.5917 20.2275 25.2266 19.8624 25.2266 19.4135V14.4838C25.2266 14.0343 24.8622 13.6698 24.4127 13.6698C23.9631 13.6698 23.5987 14.0343 23.5987 14.4838V19.4135C23.5987 20.76 24.6941 21.8554 26.0406 21.8554H26.9699V26.2136C26.9699 27.5602 25.8745 28.6556 24.5279 28.6556H22.069C20.1764 28.6556 18.6272 30.1541 18.5452 32.0268H16.7987V29.1031C16.7987 28.6536 16.4342 28.2892 15.9847 28.2892C15.5351 28.2892 15.1707 28.6536 15.1707 29.1031V32.0268H11.7418V26.0982C11.7418 25.6487 11.3773 25.2843 10.9278 25.2843C10.4782 25.2843 10.1138 25.6487 10.1138 26.0982V32.0268H9.24196C8.79243 32.0268 8.42798 32.3912 8.42798 32.8407C8.42798 33.2903 8.79243 33.6547 9.24196 33.6547H20.0137C21.0609 33.6547 21.913 34.5068 21.913 35.554V37.0837H8.58416C8.07677 37.0837 7.59989 36.8861 7.24108 36.5274C6.88228 36.1686 6.68486 35.6917 6.68486 35.1844L6.68497 23.5699C6.68497 22.6246 7.45402 21.8554 8.39944 21.8554H13.4563C14.4016 21.8554 15.1708 22.6245 15.1708 23.5699V25.3046C15.1708 25.7541 15.5352 26.1185 15.9848 26.1185C16.4343 26.1185 16.7988 25.7541 16.7988 25.3046V23.5699C16.7988 21.7269 15.2994 20.2275 13.4563 20.2275H8.39944C7.7731 20.2275 7.18638 20.4007 6.68486 20.7018V20.3835C6.68486 18.4387 5.10248 16.8563 3.1576 16.8563H2.44195C1.0954 16.8563 0 17.9517 0 19.2982V54.2113C0 54.9594 0.608534 55.5679 1.35664 55.5679H3.64252C4.39062 55.5679 4.99916 54.9594 4.99916 54.2113V52.139H18.5418V54.2113C18.5418 54.9594 19.1503 55.5679 19.8984 55.5679H30.6125C31.3606 55.5679 31.9691 54.9594 31.9691 54.2113V53.5534C31.9691 51.9076 30.6303 50.5687 28.9845 50.5687H28.5979V40.611C28.5979 38.6661 27.0156 37.0838 25.0707 37.0838H23.541V35.5541C23.541 33.6635 22.0458 32.1156 20.1758 32.0306C20.2536 31.0542 21.073 30.2835 22.069 30.2835H24.5279C26.7721 30.2835 28.5978 28.4578 28.5978 26.2136V21.8554H30.3411V22.7271C30.3411 23.1766 30.7055 23.541 31.155 23.541C31.6046 23.541 31.969 23.1766 31.969 22.7271V21.8554H32.8983C34.2448 21.8554 35.3402 20.76 35.3402 19.4135V9.24207C35.3402 7.89553 34.2448 6.80012 32.8983 6.80012H31.969V5.87088C31.969 5.5645 31.9136 5.2707 31.8122 4.99927H40.4547V48.8832H37.2395C35.2946 48.8832 33.7122 50.4655 33.7122 52.4104V54.7539C33.7122 55.2035 34.0767 55.5679 34.5262 55.5679C34.9758 55.5679 35.3402 55.2035 35.3402 54.7539V52.4103C35.3402 51.3631 36.1923 50.511 37.2395 50.511H40.4547V54.7539C40.4547 55.2035 40.8192 55.5679 41.2687 55.5679C41.7183 55.5679 42.0827 55.2035 42.0827 54.7539V50.511H45.2979C46.3452 50.511 47.1972 51.3631 47.1972 52.4103V54.7539C47.1972 55.2035 47.5617 55.5679 48.0112 55.5679C48.4608 55.5679 48.8252 55.2035 48.8252 54.7539V52.4103C48.8254 50.4654 47.243 48.883 45.2982 48.883ZM3.37119 53.9399H1.62786V52.139H3.37108L3.37119 53.9399ZM20.1697 52.139H21.913V53.9399H20.1697V52.139ZM26.9699 40.611V50.8401C26.9699 51.5882 27.5784 52.1967 28.3265 52.1967H28.9844C29.7325 52.1967 30.3411 52.8052 30.3411 53.5534V53.9399H23.5409V47.7642C23.5409 47.3147 23.1765 46.9502 22.7269 46.9502C22.2774 46.9502 21.913 47.3147 21.913 47.7642V50.5111H1.62786V19.2981C1.62786 18.8492 1.99296 18.4841 2.44184 18.4841H3.15749C4.20471 18.4841 5.05679 19.3362 5.05679 20.3834V35.1843C5.05679 36.1265 5.42362 37.0122 6.0899 37.6785C6.75617 38.3447 7.64189 38.7116 8.58405 38.7116H21.913V43.9655C21.913 44.415 22.2774 44.7795 22.7269 44.7795C23.1765 44.7795 23.5409 44.415 23.5409 43.9655V38.7116H25.0706C26.1179 38.7117 26.9699 39.5637 26.9699 40.611ZM30.3412 5.87088V6.74249H28.5979V5.87088C28.5979 5.3903 28.989 4.99927 29.4695 4.99927C29.9501 4.99927 30.3412 5.3903 30.3412 5.87088Z" fill="#1581B9"/>
</svg>
