<svg width="48" height="52" viewBox="0 0 48 52" fill="none" xmlns="http://www.w3.org/2000/svg">
<path d="M2.60091 20.0902C2.6407 20.0937 2.6804 20.0954 2.71989 20.0953C3.03366 20.0953 3.33455 19.9862 3.57778 19.7822L4.27731 19.1952L5.92792 20.3723C6.23875 20.594 6.60146 20.7038 6.96336 20.7038C7.37205 20.7038 7.77963 20.5637 8.10995 20.2865L10.248 18.4925C10.8708 17.97 11.0614 17.0924 10.7114 16.3586L9.83883 14.5286L10.5402 13.9402L12.1908 15.1172C12.5017 15.3389 12.8643 15.4488 13.2262 15.4488C13.6349 15.4488 14.0426 15.3087 14.3728 15.0314L16.5109 13.2375C17.1337 12.7149 17.3243 11.8374 16.9743 11.1035L16.1017 9.27359L16.8012 8.68664C17.3666 8.21237 17.4407 7.36655 16.9662 6.80112L15.5871 5.15762C15.3573 4.88373 15.0347 4.71573 14.6786 4.68456C14.3226 4.65299 13.9756 4.76283 13.7016 4.99256L7.67294 10.051L5.34899 7.2823C5.82123 6.47922 5.81189 5.47911 5.31884 4.68365L8.0732 1.23716C8.33572 0.908664 8.28222 0.429622 7.95372 0.167108C7.62533 -0.0954066 7.14618 -0.041909 6.88367 0.286589L4.16453 3.68902C3.86019 3.55847 3.52529 3.48599 3.17375 3.48599C1.78312 3.48599 0.651749 4.61746 0.651749 6.0081C0.651749 7.83879 2.5535 9.06325 4.21782 8.30302L6.50655 11.0298L0.478161 16.0881C0.204277 16.3178 0.036272 16.6405 0.00520882 16.9967C-0.0259559 17.3529 0.0834758 17.6998 0.313303 17.9736L1.69236 19.6171C1.92209 19.891 2.2448 20.059 2.60091 20.0902ZM2.17445 6.0081C2.17445 5.45708 2.62274 5.0087 3.17375 5.0087C3.72487 5.0087 4.17315 5.45708 4.17315 6.0081C4.17315 6.55911 3.72477 7.0075 3.17375 7.0075C2.62274 7.0075 2.17445 6.55911 2.17445 6.0081ZM9.33695 17.0138C9.38811 17.1212 9.36019 17.2495 9.26914 17.3259L7.13116 19.1199C7.04 19.1963 6.90884 19.2014 6.812 19.1325L5.48217 18.1841L8.63397 15.5395L9.33695 17.0138ZM15.5999 11.7586C15.6511 11.866 15.6232 11.9944 15.5321 12.0708L13.394 13.8648C13.303 13.9413 13.1717 13.9464 13.0749 13.8774L11.7451 12.9291L14.8968 10.2845L15.5999 11.7586ZM14.5391 6.27731L15.6812 7.63841L2.74019 18.4971L1.59816 17.136L14.5391 6.27731Z" fill="#1581B9"/>
<path d="M46.892 16.0876L40.8637 11.0293L43.1524 8.30256C43.4708 8.44802 43.8242 8.52974 44.1964 8.52974C45.587 8.52974 46.7185 7.39827 46.7185 6.00764C46.7185 4.617 45.587 3.48553 44.1964 3.48553C43.8449 3.48553 43.51 3.55801 43.2056 3.68856L40.4865 0.286026C40.224 -0.0423702 39.745 -0.0958679 39.4164 0.166545C39.0879 0.429059 39.0344 0.908101 39.297 1.2366L42.0513 4.68309C41.8126 5.06833 41.6743 5.522 41.6743 6.00754C41.6743 6.47216 41.8011 6.90756 42.0212 7.28173L39.6972 10.0504L37.8272 8.48142C37.505 8.21109 37.0248 8.25302 36.7547 8.57522C36.4843 8.89732 36.5264 9.37758 36.8485 9.64781L45.772 17.1356L44.63 18.4967L31.6889 7.63795L32.8311 6.27685L34.1273 7.36437C34.4494 7.6347 34.9296 7.59277 35.1999 7.27057C35.4702 6.94847 35.4282 6.4682 35.1061 6.19797L33.6686 4.99179C33.3949 4.76196 33.0482 4.65223 32.6918 4.6838C32.3357 4.71496 32.013 4.88287 31.7832 5.15675L30.4041 6.80036C29.9297 7.36569 30.0038 8.2115 30.569 8.68577L31.2686 9.27272L30.3959 11.1026C30.046 11.8364 30.2366 12.714 30.8594 13.2366L32.9973 15.0306C33.618 15.5513 34.5153 15.5902 35.1794 15.1165L36.83 13.9393L37.5313 14.5279L36.6587 16.3579C36.3088 17.0917 36.4993 17.9692 37.1221 18.4918L39.2601 20.2858C39.8808 20.8066 40.778 20.8453 41.4421 20.3716L43.0928 19.1946L43.7923 19.7815C44.3583 20.2564 45.2023 20.1833 45.6778 19.6166L47.0569 17.973C47.5325 17.4065 47.4588 16.563 46.892 16.0876ZM45.1958 6.00764C45.1958 6.55865 44.7474 7.00704 44.1964 7.00704C43.6453 7.00704 43.197 6.55865 43.197 6.00764C43.197 5.45662 43.6454 5.00824 44.1964 5.00824C44.7475 5.00824 45.1958 5.45662 45.1958 6.00764ZM34.2953 13.8769C34.1985 13.9459 34.0673 13.9407 33.9761 13.8642L31.838 12.0702C31.747 11.9938 31.7191 11.8655 31.7702 11.7581L32.4733 10.2838L35.6251 12.9284L34.2953 13.8769ZM40.5581 19.1321C40.4613 19.2012 40.3301 19.196 40.2389 19.1195L38.1009 17.3256C38.0099 17.2492 37.982 17.1207 38.0331 17.0134L38.7361 15.5392L41.8879 18.1838L40.5581 19.1321Z" fill="#1581B9"/>
<path d="M23.6852 45.3154C23.2647 45.3154 22.9238 45.6563 22.9238 46.0768V46.3325C22.9238 46.753 23.2647 47.0938 23.6852 47.0938C24.1056 47.0938 24.4465 46.753 24.4465 46.3325V46.0768C24.4465 45.6563 24.1056 45.3154 23.6852 45.3154Z" fill="#1581B9"/>
<path d="M44.5425 32.3178H43.4841V29.0596C43.4841 28.1318 42.7293 27.377 41.8014 27.377H5.5688C4.64097 27.377 3.88611 28.1318 3.88611 29.0596V32.3178H2.82773C2.15389 32.3178 1.60571 32.866 1.60571 33.5398V36.5142C1.60571 37.188 2.15389 37.7362 2.82773 37.7362H7.89377C8.31424 37.7362 8.65512 37.3953 8.65512 36.9749C8.65512 36.5544 8.31424 36.2135 7.89377 36.2135H3.12842V33.8405H44.2418V36.2135C42.8364 36.2135 12.9381 36.2135 11.4467 36.2135C11.0263 36.2135 10.6854 36.5544 10.6854 36.9749C10.6854 37.3953 11.0263 37.7362 11.4467 37.7362H20.993V41.8407C19.0609 42.4853 17.6636 44.3099 17.6636 46.4559V50.4523H7.74109C7.32062 50.4523 6.97974 50.7932 6.97974 51.2137C6.97974 51.6341 7.32062 51.975 7.74109 51.975H39.6292C40.0496 51.975 40.3905 51.6341 40.3905 51.2137C40.3905 50.7932 40.0496 50.4523 39.6292 50.4523H29.7066V46.4559C29.7066 45.7127 29.5385 45.0083 29.2393 44.3777H32.0062C32.1322 44.3777 32.2346 44.4802 32.2346 44.6061V44.8873C32.2346 46.8089 33.7979 48.3723 35.7196 48.3723C37.6412 48.3723 39.2045 46.809 39.2045 44.8873V37.7362H44.5425C45.2164 37.7362 45.7645 37.188 45.7645 36.5142V33.5398C45.7645 32.8661 45.2164 32.3178 44.5425 32.3178ZM5.40892 29.0596C5.40892 28.9714 5.48069 28.8997 5.56891 28.8997H41.8015C41.8898 28.8997 41.9615 28.9714 41.9615 29.0596V32.3178H5.40892V29.0596ZM22.5157 37.7362H24.8546V41.5912C24.8502 41.5912 24.8459 41.5909 24.8417 41.5909C24.8417 41.5909 22.5201 41.5912 22.5157 41.5912V37.7362ZM19.1863 50.4523V46.4559C19.1863 44.6129 20.6857 43.1136 22.5287 43.1136H24.8417C26.6846 43.1136 28.184 44.6129 28.184 46.4559V50.4523H19.1863ZM37.6818 44.8873C37.6818 45.9693 36.8016 46.8496 35.7196 46.8496C34.6376 46.8496 33.7573 45.9694 33.7573 44.8873V44.6061C33.7573 43.6405 32.9718 42.855 32.0062 42.855H28.1097C27.6144 42.4051 27.0257 42.057 26.3773 41.8407V37.7362H37.6818V44.8873Z" fill="#1581B9"/>
</svg>
