<svg width="55" height="52" viewBox="0 0 55 52" fill="none" xmlns="http://www.w3.org/2000/svg">
<path d="M54.1034 34.2486C54.3814 33.7228 54.7229 32.8257 54.5399 31.815C54.3683 30.8677 53.7862 30.0703 52.8099 29.445C51.1742 28.3978 49.001 29.3632 48.3295 29.7096H43.6845C43.1586 29.7096 42.6466 29.816 42.165 30.0077C42.1371 30.0171 42.1099 30.0282 42.0834 30.0406C40.5292 30.6953 39.3114 32.251 39.0272 34.0577H37.5594C37.2362 31.8865 35.3817 30.5678 32.5525 30.5678L30.0846 30.5897C29.6414 30.5937 29.2856 30.9559 29.2894 31.399C29.2934 31.842 29.6526 32.2003 30.0987 32.194L32.5596 32.1721C33.5958 32.1721 36.0054 32.4241 36.0054 34.7591C36.0051 34.7666 36.0051 39.3794 36.0054 39.3855C36.0054 40.4176 35.5181 41.3374 34.7621 41.9289C34.9399 41.482 35.0277 40.9994 35.0165 40.5028C34.9742 38.5438 33.3187 36.9501 31.326 36.9501H25.1017C25.0892 36.9501 25.077 36.9513 25.0646 36.952C25.0537 36.9525 25.0428 36.9522 25.0317 36.9532L13.5916 37.954C13.5615 37.9567 13.5317 37.961 13.5023 37.967L10.3006 38.6153C9.13851 38.8506 8.295 39.882 8.295 41.0677V42.2814C8.295 42.3951 8.30676 42.5058 8.3257 42.6142H1.60445V35.5672C1.60445 35.2164 1.8541 34.9119 2.19809 34.843L13.9603 32.4876C14.4563 32.3882 14.9644 32.3355 15.4701 32.3307L26.353 32.2298C26.7961 32.2257 27.1519 31.8632 27.1478 31.4202C27.1437 30.9797 26.7853 30.6254 26.3458 30.6254C26.3433 30.6254 26.3407 30.6254 26.3382 30.6254L15.4553 30.7264C14.8488 30.732 14.2399 30.7953 13.6453 30.9143L1.88298 33.2697C0.791849 33.4882 0 34.4545 0 35.5672V50.0674C0 51.0892 0.831318 51.9205 1.85314 51.9205H52.912C53.9338 51.9205 54.7652 51.0892 54.7652 50.0674C54.7515 48.7498 54.7919 38.4447 54.7505 36.8779C54.8284 36.0479 54.6123 35.1675 54.1034 34.2486ZM51.9447 30.7961C52.5266 31.1689 52.8682 31.6048 52.9594 32.0917C53.118 32.9371 52.527 33.7596 52.524 33.7639C52.3228 34.0326 52.31 34.3981 52.4922 34.6801C53.0735 35.58 53.2771 36.3741 53.0975 37.0402C52.8611 37.9167 52.0105 38.3581 52.0077 38.3597C51.6719 38.5237 51.4938 38.8978 51.5781 39.2617C51.7444 39.9792 51.6654 40.5658 51.3367 41.0557C50.6064 42.1439 48.8942 42.4329 48.8793 42.4353C48.6673 42.4684 48.4773 42.5851 48.3519 42.7592C47.2138 44.0236 45.8006 43.5684 45.7697 42.2284L45.2597 39.2333L48.1622 37.7062C49.4016 37.0541 50.2397 35.8344 50.4039 34.4437L50.678 32.124C50.7391 31.6077 50.6104 31.0894 50.3233 30.6633C50.8902 30.5319 51.4995 30.5111 51.9447 30.7961ZM39.7666 35.6621C40.2097 35.6621 40.5688 35.3029 40.5688 34.8599C40.5688 33.9693 40.9709 33.0009 41.6187 32.3012V32.7074C41.6187 33.1504 41.9778 33.5096 42.421 33.5096C42.8641 33.5096 43.2232 33.1504 43.2232 32.7074V31.359C43.2445 31.2735 48.34 31.3283 48.5325 31.3141C48.941 31.3754 49.0719 31.5225 49.0848 31.9355L48.8107 34.2552C48.7085 35.1211 48.1868 35.8802 47.4153 36.2861L44.0096 38.078C43.7008 38.2311 43.5196 38.5893 43.5803 38.9289L44.0295 41.5667C43.7236 41.5511 43.4867 41.4853 43.0097 41.2659C41.8864 40.7507 41.0371 39.9244 40.4855 38.81C40.3502 38.5366 40.0715 38.3637 39.7665 38.3637H37.6098V35.6621H39.7666ZM33.4125 40.5378V40.5386C33.4248 41.0899 33.2196 41.6102 32.8347 42.0039C32.4514 42.3959 31.9386 42.6122 31.3903 42.6142H25.9039V38.5544H31.326C32.453 38.5544 33.389 39.4441 33.4125 40.5378ZM9.89945 42.2814V41.0677C9.89945 40.6423 10.202 40.2722 10.6191 40.1877L13.7766 39.5482L24.2996 38.6276V42.6141H10.2288C10.0468 42.6122 9.89945 42.4639 9.89945 42.2814ZM10.2253 44.2186C15.436 44.2196 27.7232 44.2191 32.7767 44.2186C35.2444 44.2186 37.2848 42.3592 37.5735 39.9681H39.2877C40.2309 41.6623 42.389 43.2314 44.3007 43.1741C44.6469 44.2828 45.6821 45.0902 46.903 45.0909H46.911C47.128 45.0909 48.4824 45.0456 49.448 43.9548C50.1403 43.7905 51.7717 43.2782 52.6629 41.9588C52.8971 41.6123 53.0626 41.2397 53.1608 40.8436V47.2078H1.60445V44.2185H10.2253V44.2186ZM53.1607 50.0674C53.1607 50.2045 53.0492 50.3161 52.912 50.3161H1.85314C1.71601 50.3161 1.60445 50.2045 1.60445 50.0674V48.8123H53.1607V50.0674Z" fill="#1581B9"/>
<path d="M6.68867 1.60445H10.1148H37.7641V7.54176H10.917V4.57321C10.917 4.13017 10.558 3.77099 10.1148 3.77099C9.67166 3.77099 9.31258 4.13017 9.31258 4.57321V8.34409C9.31269 8.56978 9.41142 8.79034 9.57882 8.94105L14.2666 13.1499V15.6233C14.2666 17.0083 15.3934 18.1352 16.7785 18.1352H31.9026C33.2876 18.1352 34.4145 17.0083 34.4145 15.6233V13.1499L39.1022 8.94105C39.2696 8.79034 39.3683 8.56978 39.3684 8.34409V1.60445H41.9923C42.4355 1.60445 42.7945 1.24527 42.7945 0.802224C42.7945 0.359182 42.4355 0 41.9923 0C37.187 0 11.496 0 6.68845 0C6.24531 0 5.88623 0.359182 5.88623 0.802224C5.88623 1.24527 6.24563 1.60445 6.68867 1.60445ZM32.8102 15.6232C32.8102 16.1235 32.4031 16.5306 31.9027 16.5306H16.7786C16.2781 16.5306 15.8711 16.1235 15.8711 15.6232V13.5942H32.8102V15.6232ZM33.3051 11.9897H15.3762L12.2093 9.14632H36.4722L33.3051 11.9897Z" fill="#1581B9"/>
<path d="M16.7383 23.9894C16.425 24.3027 16.425 24.8106 16.7383 25.1238C18.769 27.1545 21.4689 28.2728 24.3407 28.2728C27.2124 28.2728 29.9123 27.1545 31.943 25.1238C32.2563 24.8105 32.2563 24.3026 31.943 23.9894C31.6296 23.6761 31.1217 23.6761 30.8084 23.9894C29.0809 25.7169 26.7838 26.6684 24.3407 26.6684C21.8974 26.6684 19.6005 25.7169 17.8728 23.9894C17.5595 23.6761 17.0517 23.6761 16.7383 23.9894Z" fill="#1581B9"/>
<path d="M18.7804 21.9474C18.4671 22.2607 18.4671 22.7686 18.7804 23.0818C20.3136 24.6149 22.3267 25.3813 24.3405 25.3813C26.3539 25.3813 28.368 24.6147 29.9008 23.0818C30.2141 22.7685 30.2141 22.2606 29.9008 21.9474C29.5874 21.6341 29.0795 21.6341 28.7663 21.9474C26.326 24.3876 22.3551 24.3876 19.9149 21.9474C19.6016 21.6342 19.0938 21.6342 18.7804 21.9474Z" fill="#1581B9"/>
<path d="M27.8588 21.0398C28.1721 20.7265 28.1721 20.2186 27.8588 19.9054C27.5454 19.5921 27.0375 19.5921 26.7242 19.9054C25.4098 21.2197 23.2713 21.2197 21.9572 19.9054C21.6438 19.5921 21.1359 19.5921 20.8226 19.9054C20.5093 20.2187 20.5093 20.7266 20.8226 21.0398C21.7926 22.0098 23.0666 22.4947 24.3407 22.4947C25.6149 22.4947 26.8888 22.0099 27.8588 21.0398Z" fill="#1581B9"/>
</svg>
