<svg width="65" height="65" viewBox="0 0 65 65" fill="none" xmlns="http://www.w3.org/2000/svg">
<path d="M39.2598 24.5309H43.2588V28.5299C43.2589 28.7656 43.3526 28.9915 43.5192 29.1581C43.6859 29.3248 43.9118 29.4184 44.1475 29.4186H48.4969C48.7326 29.4186 48.9586 29.325 49.1253 29.1583C49.2919 28.9916 49.3855 28.7656 49.3855 28.5299V24.5309H53.3851C53.6208 24.5309 53.8468 24.4373 54.0135 24.2706C54.1801 24.1039 54.2738 23.8779 54.2738 23.6422V19.2913C54.2738 19.1746 54.2509 19.059 54.2062 18.9511C54.1616 18.8433 54.0961 18.7453 54.0136 18.6627C53.9311 18.5802 53.8331 18.5148 53.7252 18.4701C53.6174 18.4255 53.5018 18.4025 53.3851 18.4026H49.3871V14.4031C49.3871 14.1674 49.2934 13.9413 49.1268 13.7747C48.9601 13.608 48.7341 13.5144 48.4984 13.5144H44.1475C43.9118 13.5145 43.6859 13.6082 43.5192 13.7748C43.3526 13.9415 43.2589 14.1674 43.2588 14.4031V18.4026H39.2598C39.0241 18.4026 38.798 18.4962 38.6314 18.6629C38.4647 18.8296 38.3711 19.0556 38.3711 19.2913V23.6422C38.3712 23.8779 38.4649 24.1038 38.6315 24.2705C38.7982 24.4371 39.0241 24.5308 39.2598 24.5309ZM40.1484 20.1799H44.1475C44.2642 20.18 44.3798 20.1571 44.4876 20.1124C44.5955 20.0678 44.6935 20.0023 44.776 19.9198C44.8585 19.8373 44.924 19.7393 44.9686 19.6314C45.0133 19.5236 45.0362 19.408 45.0361 19.2913V15.2917H47.6097V19.2913C47.6097 19.408 47.6326 19.5236 47.6772 19.6314C47.7219 19.7393 47.7873 19.8373 47.8699 19.9198C47.9524 20.0023 48.0504 20.0678 48.1582 20.1124C48.2661 20.1571 48.3817 20.18 48.4984 20.1799H52.4979V22.7535H48.4969C48.3802 22.7535 48.2646 22.7764 48.1567 22.8211C48.0489 22.8657 47.9509 22.9311 47.8683 23.0137C47.7858 23.0962 47.7204 23.1942 47.6757 23.3021C47.6311 23.4099 47.6081 23.5255 47.6082 23.6422V27.6412H45.0361V23.6422C45.0362 23.5255 45.0133 23.4099 44.9686 23.3021C44.924 23.1942 44.8585 23.0962 44.776 23.0137C44.6935 22.9311 44.5955 22.8657 44.4876 22.8211C44.3798 22.7764 44.2642 22.7535 44.1475 22.7535H40.1484V20.1799Z" fill="#1581B9"/>
<path d="M27.8671 17.5085C29.2755 17.5085 30.6523 17.0908 31.8233 16.3084C32.9944 15.5259 33.9071 14.4138 34.4461 13.1126C34.9851 11.8115 35.1261 10.3797 34.8514 8.99835C34.5767 7.61702 33.8985 6.34817 32.9027 5.35225C31.9068 4.35633 30.638 3.67808 29.2567 3.40325C27.8754 3.12843 26.4436 3.26937 25.1424 3.80827C23.8412 4.34717 22.729 5.25982 21.9465 6.4308C21.1639 7.60178 20.7462 8.97852 20.7461 10.3869C20.7481 12.275 21.499 14.0851 22.834 15.4202C24.169 16.7553 25.9791 17.5063 27.8671 17.5085ZM27.8671 5.0437C28.9241 5.0437 29.9572 5.35712 30.836 5.94432C31.7148 6.53151 32.3997 7.36612 32.8041 8.34258C33.2086 9.31905 33.3144 10.3935 33.1081 11.4301C32.9019 12.4667 32.3929 13.4189 31.6455 14.1662C30.8982 14.9135 29.946 15.4224 28.9093 15.6285C27.8727 15.8346 26.7983 15.7287 25.8218 15.3242C24.8454 14.9197 24.0109 14.2347 23.4238 13.3559C22.8367 12.477 22.5233 11.4438 22.5234 10.3869C22.5251 8.97021 23.0886 7.612 24.0904 6.61029C25.0922 5.60858 26.4504 5.04518 27.8671 5.0437Z" fill="#1581B9"/>
<path d="M52.028 33.735H40.0076C40.1363 33.2617 40.1751 32.7683 40.1218 32.2807C40.0696 31.7721 39.917 31.2789 39.6729 30.8297C39.4289 30.3804 39.0982 29.984 38.7 29.6634L27.7139 20.0348C27.6838 20.0087 27.6521 19.9844 27.619 19.9622C26.8503 19.3129 25.9299 18.8688 24.9434 18.671C23.9569 18.4732 22.9364 18.5283 21.9769 18.8311C21.0174 19.1339 20.1502 19.6746 19.4559 20.4028C18.7616 21.131 18.2628 22.023 18.0061 22.9958L15.1745 33.735H12.9727C12.0636 33.735 11.1917 34.0962 10.5489 34.739C9.90606 35.3818 9.54492 36.2537 9.54492 37.1628C9.54492 38.0719 9.90606 38.9437 10.5489 39.5866C11.1917 40.2294 12.0636 40.5905 12.9727 40.5905H16.1749C16.2091 41.6302 16.1239 42.6704 15.921 43.6907L10.7413 61.0284C10.7017 61.1611 10.6936 61.3012 10.7177 61.4376C10.7418 61.5739 10.7974 61.7027 10.8802 61.8138C10.9629 61.9248 11.0704 62.015 11.1942 62.0771C11.3179 62.1392 11.4545 62.1716 11.5929 62.1715H23.2279C23.4636 62.1715 23.6897 62.0779 23.8563 61.9112C24.023 61.7446 24.1166 61.5186 24.1166 61.2829C24.1169 60.2548 23.7587 59.2588 23.1036 58.4665C22.4486 57.6741 21.5377 57.135 20.5279 56.9421L21.9447 52.3408L25.3282 61.583C25.3911 61.7539 25.5048 61.9014 25.6541 62.0056C25.8034 62.1099 25.981 62.1658 26.1631 62.1659H35.3748C35.6105 62.1658 35.8364 62.0721 36.003 61.9055C36.1697 61.7389 36.2633 61.5129 36.2635 61.2773C36.2641 60.6976 36.1503 60.1235 35.9288 59.5878C35.7072 59.0522 35.3822 58.5654 34.9723 58.1555C34.5624 57.7457 34.0757 57.4206 33.54 57.1991C33.0044 56.9775 32.4303 56.8638 31.8506 56.8644H31.6256L25.5136 40.7642L25.5674 40.5905H41.7225V43.2555C41.7224 43.3722 41.7453 43.4878 41.79 43.5957C41.8346 43.7035 41.9001 43.8015 41.9826 43.8841C42.0651 43.9666 42.1631 44.032 42.271 44.0767C42.3788 44.1213 42.4944 44.1443 42.6111 44.1442H42.8549V50.7239H42.4263C42.3096 50.7239 42.194 50.7468 42.0861 50.7914C41.9783 50.8361 41.8803 50.9015 41.7978 50.9841C41.7152 51.0666 41.6498 51.1646 41.6051 51.2724C41.5605 51.3803 41.5375 51.4959 41.5376 51.6126V56.8527C41.3575 56.8739 41.1884 56.9502 41.0533 57.0712C40.9182 57.1922 40.8238 57.3519 40.783 57.5286L39.9893 61.0833C39.9604 61.2132 39.9611 61.348 39.9912 61.4776C40.0214 61.6073 40.0802 61.7285 40.1635 61.8324C40.2467 61.9362 40.3522 62.0201 40.4722 62.0777C40.5922 62.1354 40.7235 62.1653 40.8566 62.1654H50.1816C50.3148 62.1654 50.4462 62.1354 50.5662 62.0777C50.6862 62.02 50.7918 61.9361 50.875 61.8322C50.9583 61.7283 51.0171 61.607 51.0472 61.4773C51.0773 61.3476 51.0779 61.2127 51.0489 61.0828L50.2552 57.5281C50.2143 57.3515 50.1198 57.1919 49.9847 57.0711C49.8497 56.9502 49.6806 56.8739 49.5006 56.8527V51.6126C49.5007 51.4959 49.4778 51.3803 49.4331 51.2724C49.3885 51.1646 49.323 51.0666 49.2405 50.9841C49.158 50.9015 49.06 50.8361 48.9521 50.7914C48.8443 50.7468 48.7287 50.7239 48.612 50.7239H48.1869V44.1442H48.4256C48.5423 44.1443 48.6579 44.1213 48.7657 44.0767C48.8736 44.032 48.9716 43.9666 49.0541 43.8841C49.1367 43.8015 49.2021 43.7035 49.2467 43.5957C49.2914 43.4878 49.3143 43.3722 49.3143 43.2555V40.5905H52.028C52.9371 40.5905 53.809 40.2294 54.4518 39.5866C55.0946 38.9437 55.4557 38.0719 55.4557 37.1628C55.4557 36.2537 55.0946 35.3818 54.4518 34.739C53.809 34.0962 52.9371 33.735 52.028 33.735ZM19.725 23.4493C19.9069 22.7597 20.2619 22.1281 20.7565 21.6143C21.2511 21.1005 21.8688 20.7217 22.551 20.5138C23.2332 20.306 23.9572 20.2759 24.6542 20.4265C25.3513 20.5771 25.9983 20.9034 26.5338 21.3744C26.5635 21.4005 26.5949 21.4246 26.6277 21.4465L37.5584 31.0274C37.9535 31.3423 38.2249 31.7864 38.3248 32.2817C38.4248 32.7769 38.3469 33.2916 38.1048 33.735H33.9463L28.0435 29.4836C27.9265 29.3995 27.7908 29.345 27.6481 29.325C27.5054 29.3049 27.36 29.3198 27.2243 29.3685C27.0887 29.4171 26.9669 29.4979 26.8694 29.6041C26.7719 29.7102 26.7017 29.8384 26.6648 29.9777L25.6715 33.7356H17.0123L19.725 23.4493ZM30.9055 33.735H27.5098L28.0532 31.6809L30.9055 33.735ZM18.6332 58.2817C18.7159 58.3935 18.8236 58.4844 18.9478 58.5471C19.072 58.6097 19.2092 58.6423 19.3482 58.6422C19.7514 58.6031 20.1582 58.6519 20.5407 58.7851C20.9232 58.9184 21.2723 59.133 21.5638 59.4141C21.8419 59.6909 22.0546 60.0262 22.1864 60.3957H12.7817L17.6354 44.1564C17.6441 44.127 17.6512 44.0972 17.6567 44.067C17.8872 42.9237 17.9874 41.7579 17.9553 40.592H23.7083V40.5961L21.024 49.2909C21.0195 49.3061 21.0149 49.3224 21.0113 49.3381L18.5007 57.4925C18.4594 57.6253 18.4499 57.7658 18.4729 57.9029C18.496 58.04 18.5509 58.1697 18.6332 58.2817ZM31.0127 58.6422C31.4697 58.6996 32.6885 58.3883 33.7132 59.41C33.989 59.6871 34.2004 60.0213 34.3328 60.3891H26.7841L22.8085 49.5311L24.6605 43.5262L30.1819 58.0694C30.246 58.2379 30.3597 58.3829 30.5081 58.4852C30.6565 58.5875 30.8325 58.6423 31.0127 58.6422ZM47.7233 52.5013V56.8334H43.317V52.5013H47.7233ZM41.9657 60.3881L42.3623 58.6107H48.6754L49.073 60.3881H41.9657ZM46.4096 50.7239H44.6322V44.1442H46.4096V50.7239ZM47.5369 42.3668H43.4998V40.5895H47.5369V42.3668ZM52.028 38.8122H12.9727C12.5349 38.8122 12.1152 38.6383 11.8057 38.3288C11.4961 38.0193 11.3223 37.5995 11.3223 37.1618C11.3223 36.7241 11.4961 36.3043 11.8057 35.9948C12.1152 35.6853 12.5349 35.5114 12.9727 35.5114H52.028C52.4657 35.5114 52.8855 35.6853 53.195 35.9948C53.5045 36.3043 53.6784 36.7241 53.6784 37.1618C53.6784 37.5995 53.5045 38.0193 53.195 38.3288C52.8855 38.6383 52.4657 38.8122 52.028 38.8122Z" fill="#1581B9"/>
</svg>
