<svg width="65" height="65" viewBox="0 0 65 65" fill="none" xmlns="http://www.w3.org/2000/svg">
<path d="M5.61544 35.3314C5.32022 35.8614 5.14141 36.4482 5.09095 37.0527C5.0405 37.6572 5.11955 38.2655 5.32285 38.837C5.52614 39.4085 5.84899 39.9301 6.26986 40.367C6.69073 40.8038 7.19993 41.1459 7.76349 41.3703L8.9081 41.8294C9.27734 41.9753 9.59398 42.2292 9.81667 42.5579C10.0394 42.8865 10.1577 43.2747 10.1563 43.6718V48.63C10.1572 49.5342 10.3675 50.4259 10.7708 51.2351C11.0342 51.7621 11.1715 52.3431 11.1719 52.9322C11.1738 54.516 11.8038 56.0344 12.9237 57.1543C14.0436 58.2743 15.562 58.9042 17.1458 58.9061H23.6458L25.4455 64.3052L27.3752 63.6633L25.344 57.5696C25.2763 57.3664 25.1462 57.1899 24.9722 57.0651C24.7982 56.9403 24.5892 56.8738 24.3751 56.8749H17.1458C16.1005 56.8738 15.0983 56.4581 14.3591 55.7189C13.62 54.9798 13.2043 53.9776 13.2032 52.9322C13.2023 52.0281 12.992 51.1364 12.5887 50.3271C12.3253 49.8002 12.188 49.2192 12.1876 48.63V43.6718C12.1898 42.8685 11.9501 42.0832 11.4998 41.418C11.0494 40.7529 10.4093 40.2387 9.66271 39.9424L8.51708 39.4843C8.22145 39.3669 7.95429 39.1878 7.73347 38.9588C7.51265 38.7298 7.34326 38.4564 7.23664 38.1567C7.13001 37.857 7.0886 37.538 7.11518 37.221C7.14176 36.904 7.23571 36.5964 7.39076 36.3186L10.722 30.3264C11.6829 28.595 12.1872 26.6475 12.1876 24.6674C12.1875 23.7156 12.0708 22.7674 11.8402 21.8439L11.3324 19.8198C11.2258 19.3895 11.172 18.9479 11.1719 18.5046C11.1711 17.8149 11.3028 17.1315 11.5599 16.4916C13.1358 12.5145 15.8735 9.10446 19.416 6.70619C22.9585 4.30792 27.1415 3.03268 31.4194 3.04676H35.5469C39.5963 3.0519 43.5683 4.15598 47.0394 6.24125C50.5105 8.32652 53.3506 11.3148 55.2568 14.8874C57.163 18.46 58.0638 22.483 57.8632 26.5274C57.6626 30.5717 56.368 34.4858 54.1176 37.8522C51.2757 42.1066 49.761 47.1091 49.7657 52.2253C49.766 54.0395 49.9645 55.8483 50.3578 57.6193L51.8213 64.2046L53.8038 63.7639L52.3403 57.1796C51.9794 55.5529 51.7972 53.8916 51.7969 52.2253C51.7928 47.5101 53.1887 42.8997 55.8076 38.9786C58.2619 35.3062 59.6734 31.0367 59.8917 26.6252C60.1101 22.2136 59.127 17.8256 57.0473 13.9289C54.9677 10.0322 51.8694 6.77298 48.083 4.4988C44.2965 2.22461 39.9638 1.02072 35.5469 1.01551H31.4194C26.7346 1.00015 22.1538 2.39708 18.2748 5.02406C14.3957 7.65105 11.3984 11.3861 9.67388 15.7421C9.09264 17.195 8.9839 18.7941 9.3631 20.3124L9.87091 22.3365C10.0621 23.1004 10.1586 23.885 10.1583 24.6725C10.1578 26.3071 9.74154 27.9148 8.94872 29.3443L5.61544 35.3314Z" fill="#1581B9"/>
<path d="M21.3281 19.2969H19.2969C19.2985 20.6432 19.834 21.9339 20.786 22.8859C21.738 23.8379 23.0287 24.3734 24.375 24.375V22.3438C23.5669 22.3438 22.7919 22.0227 22.2205 21.4513C21.6491 20.8799 21.3281 20.105 21.3281 19.2969Z" fill="#1581B9"/>
<path d="M31.4844 18.2812C31.4845 17.3019 31.2479 16.3371 30.7949 15.4688C30.3418 14.6006 29.6857 13.8546 28.8823 13.2945C29.0672 13.2366 29.2594 13.2058 29.4531 13.2031V11.1719C28.3757 11.1719 27.3424 11.5999 26.5805 12.3618C25.8186 13.1236 25.3906 14.1569 25.3906 15.2344H27.4219C27.4225 15.0892 27.4389 14.9444 27.4706 14.8027C28.0744 15.1608 28.5746 15.6698 28.9221 16.2797C29.2697 16.8895 29.4527 17.5793 29.4531 18.2812H31.4844Z" fill="#1581B9"/>
<path d="M41.6406 32.5V34.5312C42.7181 34.5312 43.7514 34.1032 44.5132 33.3414C45.2751 32.5795 45.7031 31.5462 45.7031 30.4688H43.6719C43.6719 31.0075 43.4579 31.5241 43.0769 31.9051C42.696 32.286 42.1793 32.5 41.6406 32.5Z" fill="#1581B9"/>
<path d="M51.7975 28.4375C51.7975 28.1999 51.7863 27.9561 51.762 27.6981C53.2726 26.5064 54.3101 24.816 54.6887 22.9295C55.0674 21.0429 54.7625 19.0831 53.8288 17.4007C53.8288 17.356 53.8288 17.3114 53.8288 17.2656C53.8252 16.569 53.6432 15.8848 53.3003 15.2784C52.9573 14.672 52.4648 14.1635 51.8696 13.8014C51.0054 11.8083 49.576 10.1122 47.7581 8.92284C45.9402 7.73349 43.8136 7.10302 41.6412 7.1094C41.4595 7.1094 41.2787 7.1094 41.0979 7.12362C40.0501 5.93595 38.5781 5.20678 36.9984 5.09283C35.4187 4.97888 33.8573 5.48925 32.6499 6.51424C31.3972 6.03794 30.0227 5.9867 28.738 6.36843C27.4534 6.75016 26.3299 7.54367 25.5405 8.62674C24.8614 8.29554 24.1156 8.12394 23.36 8.12503C22.0364 8.12664 20.7655 8.64416 19.8173 9.56769C18.8692 10.4912 18.3183 11.748 18.2819 13.0711C17.5221 13.8149 16.8849 14.6743 16.3938 15.6173C15.4527 15.9901 14.6452 16.6371 14.0763 17.4744C13.5073 18.3117 13.2031 19.3007 13.2031 20.313C13.2031 21.3254 13.5073 22.3143 14.0763 23.1516C14.6452 23.9889 15.4527 24.636 16.3938 25.0088C17.4355 27.007 19.1131 28.6014 21.1617 29.5402C23.2102 30.4791 25.5131 30.709 27.7069 30.1935C27.8501 30.2352 27.9973 30.2728 28.1477 30.3042C28.7895 31.4809 29.7995 32.4146 31.0229 32.9621C31.5713 34.2086 32.5261 35.2324 33.7313 35.8664C34.9366 36.5004 36.3211 36.7071 37.659 36.4528C39.6846 41.0514 41.0289 45.9207 41.6494 50.9072C41.6801 51.1528 41.7994 51.3787 41.9849 51.5426C42.1704 51.7064 42.4094 51.7968 42.6569 51.7969C42.766 51.797 42.8744 51.7791 42.9778 51.7441L46.0247 50.7285C46.2268 50.6611 46.4027 50.5319 46.5274 50.3591C46.652 50.1863 46.7192 49.9787 46.7194 49.7656C46.7194 45.5315 46.502 41.211 46.0724 36.9139C47.7582 36.2259 49.202 35.0533 50.2211 33.5444C51.2402 32.0355 51.7888 30.2583 51.7975 28.4375ZM44.6881 35.2483C44.4608 35.316 44.2643 35.4611 44.1328 35.6585C44.0013 35.8559 43.943 36.0931 43.968 36.3289C44.419 40.5722 44.6597 44.8419 44.6851 49.0344L43.4968 49.4305C42.7506 44.3782 41.2869 39.4583 39.1499 34.8197C39.0443 34.59 38.8568 34.408 38.6241 34.3092C38.3914 34.2104 38.1302 34.2019 37.8916 34.2855C37.466 34.4426 37.0167 34.5257 36.5631 34.5313C35.7291 34.5274 34.9166 34.2669 34.2357 33.7852C33.5549 33.3035 33.0388 32.624 32.7576 31.8389C32.7069 31.6988 32.626 31.5716 32.5207 31.4663C32.4154 31.361 32.2882 31.2802 32.1482 31.2295C31.6196 31.0406 31.1358 30.7447 30.7268 30.3602C30.3179 29.9757 29.9927 29.511 29.7716 28.9951C29.7016 28.8312 29.5897 28.6885 29.447 28.5816C29.3044 28.4746 29.1361 28.4071 28.9591 28.3857C28.6614 28.3505 28.3685 28.2823 28.0857 28.1826C27.8918 28.1132 27.6814 28.1043 27.4824 28.1572C25.642 28.6569 23.6842 28.4893 21.9555 27.684C20.2268 26.8788 18.8388 25.4879 18.0371 23.7575C17.9765 23.628 17.8893 23.5128 17.7812 23.4194C17.673 23.3259 17.5463 23.2563 17.4095 23.2152C16.7813 23.0327 16.2293 22.6513 15.8365 22.1282C15.4437 21.6052 15.2314 20.9687 15.2314 20.3146C15.2314 19.6604 15.4437 19.024 15.8365 18.5009C16.2293 17.9778 16.7813 17.5964 17.4095 17.4139C17.5463 17.3728 17.673 17.3032 17.7812 17.2098C17.8893 17.1163 17.9765 17.0011 18.0371 16.8716C18.5054 15.8725 19.1728 14.9794 19.9983 14.2472C20.1146 14.1438 20.2057 14.0149 20.2643 13.8707C20.3229 13.7265 20.3476 13.5707 20.3365 13.4154C20.3365 13.3535 20.3243 13.2946 20.3101 13.2052C20.3101 12.3971 20.6311 11.6221 21.2025 11.0507C21.7739 10.4793 22.5489 10.1583 23.357 10.1583C24.0457 10.1618 24.7124 10.4013 25.246 10.8367C25.3659 10.9325 25.5059 10.9998 25.6556 11.0337C25.8053 11.0676 25.9606 11.0671 26.1101 11.0323C26.2595 10.9975 26.3991 10.9293 26.5184 10.8328C26.6377 10.7363 26.7336 10.614 26.7989 10.4752C27.0325 9.97848 27.3647 9.53447 27.7752 9.17012C28.1858 8.80576 28.6661 8.52868 29.187 8.3557C29.708 8.18273 30.2586 8.11746 30.8055 8.16388C31.3525 8.2103 31.8843 8.36743 32.3686 8.62573C32.5664 8.73186 32.7937 8.76948 33.0151 8.73274C33.2365 8.69599 33.4395 8.58693 33.5924 8.4226C33.9955 7.98127 34.492 7.63537 35.0456 7.41007C35.5992 7.18476 36.1961 7.08573 36.7929 7.12016C37.3896 7.1546 37.9712 7.32165 38.4952 7.60915C39.0192 7.89664 39.4726 8.29736 39.8223 8.78213C39.9266 8.92297 40.0656 9.0344 40.2258 9.10559C40.386 9.17678 40.5619 9.2053 40.7363 9.18838C41.04 9.1569 41.3366 9.14065 41.6412 9.14065C43.4707 9.13583 45.2591 9.68279 46.7729 10.7101C48.2867 11.7374 49.4556 13.1974 50.1268 14.8992C50.2221 15.1365 50.4035 15.3291 50.6346 15.4385C50.9823 15.6008 51.2764 15.8589 51.4824 16.1826C51.6884 16.5062 51.7977 16.882 51.7975 17.2656C51.7959 17.3069 51.7911 17.348 51.7833 17.3885C51.7833 17.3946 51.7701 17.4962 51.7691 17.5013C51.7421 17.7278 51.7922 17.9567 51.9112 18.1513C52.7352 19.4898 53.0084 21.0954 52.6736 22.6311C52.3388 24.1668 51.4219 25.513 50.1156 26.387C49.9564 26.4941 49.8307 26.6442 49.7532 26.8198C49.6758 26.9954 49.6496 27.1894 49.6779 27.3792C49.9492 29.0738 49.5918 30.8091 48.6727 32.2584C47.7537 33.7077 46.3366 34.7711 44.6881 35.2483Z" fill="#1581B9"/>
<path d="M50.7812 19.2969H46.7188C46.5156 19.2968 46.3172 19.3577 46.149 19.4715C45.9808 19.5854 45.8506 19.7471 45.7752 19.9357L44.7738 22.4392L43.6201 18.976C43.5567 18.7851 43.4381 18.6174 43.2793 18.494C43.1206 18.3707 42.9287 18.2972 42.7282 18.283C42.5276 18.2687 42.3273 18.3143 42.1527 18.414C41.9781 18.5137 41.837 18.663 41.7473 18.8429L40.0634 22.2107L38.5775 14.037C38.5365 13.8113 38.4203 13.6062 38.2479 13.455C38.0755 13.3038 37.857 13.2154 37.6279 13.2042C37.3984 13.1905 37.1711 13.2562 36.9843 13.3903C36.7975 13.5244 36.6626 13.7187 36.6021 13.9405L34.7811 20.3125H28.4375V22.3438H35.5469C35.7676 22.3436 35.9822 22.2716 36.1583 22.1385C36.3344 22.0055 36.4624 21.8187 36.5229 21.6064L37.3577 18.6855L38.61 25.5725C38.6481 25.7821 38.7512 25.9744 38.9047 26.1223C39.0581 26.2701 39.2542 26.3659 39.4652 26.3961C39.5129 26.403 39.5611 26.4064 39.6094 26.4063C39.799 26.4073 39.9851 26.3553 40.1466 26.256C40.3082 26.1567 40.4387 26.0142 40.5234 25.8446L42.4734 21.9436L43.7288 25.7116C43.7944 25.9093 43.9192 26.082 44.0863 26.2063C44.2534 26.3306 44.4547 26.4006 44.6629 26.4067C44.8711 26.4128 45.0761 26.3547 45.2502 26.2404C45.4243 26.126 45.559 25.9609 45.6361 25.7675L47.4063 21.3282H50.7812V19.2969Z" fill="#1581B9"/>
</svg>
