<svg width="65" height="65" viewBox="0 0 65 65" fill="none" xmlns="http://www.w3.org/2000/svg">
<g clip-path="url(#clip0_2635_87)">
<path d="M63.9167 23.8334C63.9101 20.6022 61.5311 17.8665 58.3321 17.4114C57.2686 10.5385 51.3713 5.4552 44.4167 5.41675C44.1404 5.41675 43.8501 5.44925 43.5674 5.4655C42.5465 3.65414 40.7184 2.44263 38.6525 2.20819C36.5865 1.97375 34.5335 2.74486 33.1327 4.28141C31.2101 2.90621 28.9055 2.1668 26.5417 2.16675C22.8678 2.1851 19.426 3.96528 17.2879 6.95292C14.8329 6.09617 12.1159 6.46869 9.98216 7.95461C7.84839 9.44053 6.55663 11.8596 6.50868 14.4593C3.31826 15.5317 1.51169 18.9 2.38335 22.151C0.827469 24.3949 -0.00423773 27.0612 1.62373e-05 29.7917C-0.00401666 34.0367 1.98458 38.0373 5.37093 40.597C8.75728 43.1567 13.1487 43.9785 17.2315 42.8167C18.647 45.861 21.4622 48.0205 24.7694 48.5986C28.0765 49.1767 31.4574 48.1004 33.8217 45.7168C35.1539 46.1694 36.5398 46.4451 37.9438 46.5368C38.1442 50.5885 39.702 53.0173 46.241 55.197C50.4866 56.6118 51.6198 59.4848 51.9166 61.0719C52.1183 62.0992 53.0212 62.8385 54.0681 62.8334H57.3734C57.9706 62.8344 58.5419 62.5888 58.952 62.1547C59.3622 61.7205 59.575 61.1363 59.54 60.54C59.3786 57.94 58.6582 51.9199 55.5198 48.0979C59.1318 46.124 61.6943 42.6627 62.5279 38.6317C65.4801 35.1946 65.8246 30.2267 63.375 26.415C63.7292 25.6003 63.9136 24.7218 63.9167 23.8334ZM60.7469 37.3881L60.7219 37.4141C59.1805 39.1078 56.9985 40.0764 54.7084 40.0834C53.4263 40.0879 52.1624 39.7812 51.025 39.1897C50.5089 38.9233 50.0244 38.5995 49.5809 38.2244C51.0284 36.5719 51.3316 34.2076 50.3479 32.2433C50.1738 31.8973 49.8282 31.6705 49.4415 31.6483C49.0548 31.6262 48.6856 31.812 48.473 32.1358C48.2604 32.4597 48.2368 32.8723 48.4109 33.2183C48.636 33.6679 48.7521 34.164 48.75 34.6667C48.7514 36.1754 47.7145 37.4866 46.2462 37.833C44.7778 38.1793 43.2642 37.4697 42.5913 36.1195C42.4171 35.7735 42.0716 35.5467 41.6848 35.5245C41.2981 35.5023 40.9289 35.6882 40.7163 36.012C40.5038 36.3358 40.4801 36.7485 40.6543 37.0945C41.9593 39.7263 45.1324 40.8271 47.7869 39.5688C48.4616 40.1901 49.2196 40.714 50.0392 41.1256C52.9765 42.6395 56.4667 42.6302 59.3959 41.1007C57.7 44.5056 54.4695 46.8867 50.7152 47.4988C50.1557 47.5863 49.7579 48.0899 49.8025 48.6545C49.8471 49.219 50.319 49.654 50.8853 49.6525C50.9433 49.6527 51.0013 49.6479 51.0586 49.6384C51.8719 49.5053 52.6717 49.2997 53.4484 49.0242C56.5251 52.2579 57.2206 58.1913 57.3734 60.6711H54.0464C53.7366 59.0168 52.4214 54.9717 46.9257 53.1397C41.3389 51.2775 40.2664 49.5864 40.1093 46.5412H40.1679C41.3933 46.4568 42.605 46.2329 43.7797 45.8738C44.3517 45.6982 44.673 45.0922 44.4974 44.5202C44.3218 43.9482 43.7158 43.6269 43.1438 43.8025C42.1197 44.1155 41.063 44.3096 39.9945 44.381C37.9232 44.5425 35.8423 44.229 33.9105 43.4645C33.4829 43.3019 32.9992 43.4219 32.6972 43.7657C30.8005 45.9685 27.8707 46.9892 25.0158 46.4416C22.1609 45.8941 19.8167 43.8619 18.8695 41.1137V41.1072C18.0788 38.8403 18.3377 36.3391 19.5758 34.2822C19.8843 33.7694 19.7186 33.1037 19.2059 32.7953C18.6931 32.4869 18.0274 32.6525 17.719 33.1652C17.239 33.965 16.8705 34.8267 16.6238 35.7262C15.7 35.849 14.7686 35.5633 14.0726 34.9436C13.3765 34.324 12.985 33.4319 13 32.5001V32.4567C12.9992 32.1717 12.8841 31.8988 12.6805 31.6993C12.4769 31.4997 12.2017 31.3902 11.9167 31.3951C11.3144 31.4057 10.8321 31.8977 10.8334 32.5001C10.8369 35.4901 13.26 37.9132 16.25 37.9167H16.2868C16.2771 38.0988 16.25 38.2786 16.25 38.4584C16.2524 39.2372 16.3436 40.0132 16.5219 40.7713C13.1026 41.6969 9.44737 40.9776 6.63368 38.8256C3.81999 36.6735 2.16872 33.3341 2.16668 29.7917C2.16343 27.9405 2.61743 26.117 3.48835 24.4834C3.98612 25.1556 4.6093 25.7251 5.32352 26.1604C5.6554 26.3595 6.06831 26.3665 6.40671 26.1786C6.7451 25.9908 6.95757 25.6367 6.96408 25.2497C6.97059 24.8627 6.77015 24.5016 6.43827 24.3025C4.76488 23.3018 3.96588 21.3068 4.48591 19.4277C5.00593 17.5485 6.71693 16.2481 8.66668 16.2501C10.0338 16.245 11.3215 16.8921 12.1334 17.9921C12.4923 18.4707 13.1714 18.5677 13.65 18.2087C14.1287 17.8498 14.2257 17.1707 13.8667 16.6921C12.6536 15.0515 10.7342 14.0835 8.69377 14.0834C8.9767 11.0177 11.5463 8.67105 14.625 8.66675C15.1487 8.6699 15.6697 8.74277 16.1742 8.88341C15.913 9.45309 15.6992 10.0433 15.535 10.6482C15.4622 10.9263 15.5029 11.222 15.6482 11.4701C15.7934 11.7182 16.0314 11.8984 16.3096 11.9709C16.5877 12.0438 16.8834 12.0031 17.1315 11.8578C17.3796 11.7125 17.5598 11.4745 17.6323 11.1963C17.8465 10.3712 18.1747 9.57998 18.6074 8.8455C20.2796 6.05594 23.2893 4.34441 26.5417 4.33341C28.4857 4.33227 30.3798 4.94872 31.9508 6.09383C31.5981 6.90575 31.4163 7.78155 31.4167 8.66675C31.4167 9.26506 31.9017 9.75008 32.5 9.75008C33.0983 9.75008 33.5834 9.26506 33.5834 8.66675C33.5834 6.27351 35.5234 4.33341 37.9167 4.33341C40.3099 4.33341 42.25 6.27351 42.25 8.66675C42.25 9.26506 42.735 9.75008 43.3334 9.75008C43.9317 9.75008 44.4167 9.26506 44.4167 8.66675C44.4148 8.30353 44.3822 7.94113 44.3192 7.58342H44.4167C50.2024 7.6138 55.1411 11.7718 56.1568 17.4677C55.1999 17.6516 54.2972 18.0502 53.5167 18.6334C53.038 18.9924 52.941 19.6714 53.3 20.1501C53.659 20.6287 54.338 20.7257 54.8167 20.3667C56.4575 19.1345 58.7376 19.222 60.2791 20.5764C61.8206 21.9309 62.2008 24.1808 61.1899 25.9665C60.74 26.7503 60.0589 27.3761 59.2399 27.7583C58.6979 28.012 58.4641 28.6571 58.7178 29.1992C58.9715 29.7412 59.6165 29.975 60.1586 29.7213C60.8442 29.3942 61.4674 28.9498 62.0003 28.4083C63.4574 31.377 62.9583 34.934 60.7404 37.387L60.7469 37.3881Z" fill="#1581B9"/>
<path d="M38.9995 22.7501H34.6661V13.0001C34.6662 12.529 34.3618 12.1119 33.9132 11.9682C33.4646 11.8245 32.9746 11.9872 32.701 12.3706L21.8676 27.5373C21.6319 27.8676 21.6004 28.3019 21.7862 28.6626C21.9719 29.0234 22.3437 29.2501 22.7495 29.2501H27.0828V39.0001C27.0827 39.4711 27.3871 39.8882 27.8357 40.0319C28.2843 40.1756 28.7743 40.0129 29.048 39.6295L39.8813 24.4628C40.117 24.1326 40.1485 23.6983 39.9627 23.3375C39.777 22.9767 39.4052 22.75 38.9995 22.7501ZM29.2495 35.619V28.1667C29.2495 27.5684 28.7644 27.0834 28.1661 27.0834H24.8544L32.4995 16.3811V23.8334C32.4995 24.4317 32.9845 24.9167 33.5828 24.9167H36.8945L29.2495 35.619Z" fill="#1581B9"/>
</g>
<defs>
<clipPath id="clip0_2635_87">
<rect width="65" height="65" fill="white"/>
</clipPath>
</defs>
</svg>
