<svg width="65" height="65" viewBox="0 0 65 65" fill="none" xmlns="http://www.w3.org/2000/svg">
<g clip-path="url(#clip0_2635_93)">
<path d="M26.7597 15.2848C26.7597 13.7095 25.4781 12.428 23.9029 12.428H7.63607C6.06091 12.428 4.7793 13.7095 4.7793 15.2848V34.4196C4.7793 35.9948 6.06091 37.2763 7.63607 37.2763H8.5995C9.12553 37.2763 9.55176 36.85 9.55176 36.3241C9.55176 35.7982 9.12553 35.3718 8.5995 35.3718H7.63607C7.11093 35.3718 6.68381 34.9447 6.68381 34.4196V15.2848C6.68381 14.7596 7.11093 14.3325 7.63607 14.3325H23.9028C24.4279 14.3325 24.8551 14.7596 24.8551 15.2848V34.4196C24.8551 34.9447 24.4279 35.3718 23.9028 35.3718H12.4236C11.8976 35.3718 11.4714 35.7982 11.4714 36.3241C11.4714 36.85 11.8976 37.2763 12.4236 37.2763H23.9029C25.4781 37.2763 26.7597 35.9948 26.7597 34.4196V15.2848Z" fill="#1581B9"/>
<path d="M32.499 14.3398C30.9198 14.3398 29.6348 15.6248 29.6348 17.2041C29.6348 18.7835 30.9197 20.0684 32.499 20.0684C34.0784 20.0684 35.3633 18.7835 35.3633 17.2041C35.3633 15.6248 34.0783 14.3398 32.499 14.3398ZM32.499 18.1639C31.9698 18.1639 31.5393 17.7333 31.5393 17.2041C31.5393 16.6749 31.9698 16.2444 32.499 16.2444C33.0282 16.2444 33.4588 16.6749 33.4588 17.2041C33.4588 17.7333 33.0282 18.1639 32.499 18.1639Z" fill="#1581B9"/>
<path d="M32.499 21.988C30.9198 21.988 29.6348 23.2729 29.6348 24.8523C29.6348 26.4317 30.9197 27.7166 32.499 27.7166C34.0784 27.7166 35.3633 26.4317 35.3633 24.8523C35.3633 23.2729 34.0783 21.988 32.499 21.988ZM32.499 25.8119C31.9698 25.8119 31.5393 25.3814 31.5393 24.8522C31.5393 24.323 31.9698 23.8924 32.499 23.8924C33.0282 23.8924 33.4588 24.323 33.4588 24.8522C33.4588 25.3814 33.0282 25.8119 32.499 25.8119Z" fill="#1581B9"/>
<path d="M32.499 29.6357C30.9198 29.6357 29.6348 30.9207 29.6348 32.5C29.6348 34.0794 30.9197 35.3643 32.499 35.3643C34.0784 35.3643 35.3633 34.0794 35.3633 32.5C35.3633 30.9207 34.0783 29.6357 32.499 29.6357ZM32.499 33.4596C31.9698 33.4596 31.5393 33.0291 31.5393 32.4999C31.5393 31.9707 31.9698 31.5401 32.499 31.5401C33.0282 31.5401 33.4588 31.9707 33.4588 32.4999C33.4588 33.0291 33.0282 33.4596 32.499 33.4596Z" fill="#1581B9"/>
<path d="M12.7132 19.9206C12.9577 19.5539 13.5071 19.5882 13.7043 19.9823L15.1087 22.7911C15.9824 24.5386 18.4458 24.6333 19.4508 22.9579L20.4438 21.303C20.655 20.9506 20.9167 21.0245 21.9838 21.0245C22.5098 21.0245 22.936 20.5981 22.936 20.0722C22.936 19.5463 22.5098 19.12 21.9838 19.12H20.9359C20.0702 19.12 19.2559 19.5811 18.8107 20.3234L17.8177 21.9783C17.5845 22.3672 17.0149 22.3452 16.8121 21.9395L15.4077 19.1308C14.5565 17.4286 12.1841 17.2807 11.1287 18.8644C10.9098 19.1927 10.6523 19.12 9.55577 19.12C9.02975 19.12 8.60352 19.5463 8.60352 20.0722C8.60352 20.5981 9.02975 21.0245 9.55577 21.0245C10.6267 21.0244 11.866 21.1916 12.7132 19.9206Z" fill="#1581B9"/>
<path d="M11.4678 32.4964H20.0718C21.6511 32.4964 22.9361 31.2114 22.9361 29.6321C22.9361 28.0527 21.6512 26.7678 20.0718 26.7678H11.4678C9.88856 26.7678 8.60352 28.0527 8.60352 29.6321C8.60352 31.2114 9.88856 32.4964 11.4678 32.4964ZM11.4678 28.6725H20.0718C20.601 28.6725 21.0316 29.103 21.0316 29.6322C21.0316 30.1614 20.601 30.592 20.0718 30.592H11.4678C10.9386 30.592 10.508 30.1614 10.508 29.6322C10.508 29.103 10.9386 28.6725 11.4678 28.6725Z" fill="#1581B9"/>
<path d="M32.499 38.2397C30.9198 38.2397 29.6348 39.5247 29.6348 41.104V45.884C29.6348 47.4633 30.9197 48.7482 32.499 48.7482C34.0784 48.7482 35.3633 47.4633 35.3633 45.884V41.104C35.3632 39.5245 34.0783 38.2397 32.499 38.2397ZM33.4587 45.8838C33.4587 46.413 33.0281 46.8436 32.4989 46.8436C31.9697 46.8436 31.5392 46.413 31.5392 45.8838V41.1039C31.5392 40.5747 31.9697 40.1441 32.4989 40.1441C33.0281 40.1441 33.4587 40.5747 33.4587 41.1039V45.8838Z" fill="#1581B9"/>
<path d="M6.80172 41.5473L5.42018 43.4478C3.81379 45.6575 5.41066 48.7482 8.17437 48.7482H10.9374C13.7022 48.7482 15.2976 45.6568 13.6916 43.4477L12.3101 41.5473C10.9562 39.6845 8.15583 39.6843 6.80172 41.5473ZM10.7697 42.6672L12.1513 44.5677C12.8375 45.5117 12.1594 46.8437 10.9374 46.8437H8.1745C6.95446 46.8437 6.27277 45.5138 6.96068 44.5677L8.34222 42.6672C8.93503 41.8517 10.177 41.8517 10.7697 42.6672Z" fill="#1581B9"/>
<path d="M23.3652 40.1516H20.6021C17.8375 40.1516 16.2419 43.243 17.8479 45.452L19.2293 47.3525C20.5837 49.2155 23.3836 49.2155 24.7379 47.3525L26.1195 45.452C27.7259 43.2424 26.129 40.1516 23.3652 40.1516ZM24.579 44.3323L23.1974 46.2327C22.6047 47.0482 21.3626 47.0482 20.7698 46.2327L19.3884 44.3323C18.7021 43.3883 19.3803 42.0563 20.6022 42.0563H23.3653C24.5852 42.0561 25.2669 43.386 24.579 44.3323Z" fill="#1581B9"/>
<path d="M51.6152 26.7642C51.6152 25.1848 50.3303 23.8999 48.751 23.8999C47.1716 23.8999 45.8867 25.1848 45.8867 26.7642C45.8867 28.3435 47.1716 29.6284 48.751 29.6284C50.3303 29.6284 51.6152 28.3435 51.6152 26.7642ZM47.7914 26.7642C47.7914 26.235 48.2219 25.8044 48.7511 25.8044C49.2803 25.8044 49.7109 26.235 49.7109 26.7642C49.7109 27.2934 49.2803 27.7239 48.7511 27.7239C48.2219 27.7239 47.7914 27.2934 47.7914 26.7642Z" fill="#1581B9"/>
<path d="M65 41.1039C65 37.416 61.9996 34.4157 58.3117 34.4157C54.6238 34.4157 51.6234 37.416 51.6234 41.1039C51.6234 44.4684 54.1212 47.2594 57.3595 47.7232V56.3998C57.3595 60.0919 54.3558 63.0955 50.6638 63.0955H46.4927C48.4492 61.5177 49.7041 59.1031 49.7041 56.3998V33.3834C52.9424 32.9196 55.4401 30.1287 55.4401 26.7642C55.4401 23.0763 52.4397 20.0759 48.7518 20.0759C45.0639 20.0759 42.0635 23.0763 42.0635 26.7642C42.0635 30.1287 44.5612 32.9197 47.7996 33.3834V56.3998C47.7996 60.0918 44.7959 63.0955 41.1039 63.0955H34.4119C30.9813 63.0955 28.1466 60.5015 27.7623 57.1723C28.8509 56.7663 29.6284 55.7162 29.6284 54.4878V53.5281H33.4785C37.1539 53.5281 40.1443 50.5379 40.1443 46.8623V6.66581C40.1443 2.99022 37.1539 0 33.4785 0H29.6321C29.1061 0 28.6799 0.426358 28.6799 0.952258C28.6799 1.47816 29.1061 1.90452 29.6321 1.90452H33.4785C36.1039 1.90452 38.2398 4.04037 38.2398 6.66581V46.8623C38.2398 49.4877 36.1039 51.6236 33.4785 51.6236H6.66581C4.04037 51.6236 1.90452 49.4877 1.90452 46.8623V6.66581C1.90452 4.04037 4.04037 1.90452 6.66581 1.90452H25.8081C26.3341 1.90452 26.7604 1.47816 26.7604 0.952258C26.7604 0.426358 26.3341 0 25.8081 0H6.66581C2.99034 0 0 2.99022 0 6.66581V46.8623C0 50.496 2.93816 53.5281 6.69196 53.5281V54.5027C6.69196 56.4554 7.87403 58.1366 9.55991 58.8702V62.1356C9.55991 63.715 10.8448 64.9999 12.4243 64.9999C14.0035 64.9999 15.2886 63.715 15.2886 62.1356V58.8702C16.9743 58.1368 18.1564 56.4556 18.1564 54.5028V53.5282H23.8998V54.488C23.8998 55.7479 24.7178 56.8196 25.8504 57.2019C26.2563 61.5693 29.9403 65.0001 34.4119 65.0001H50.6638C55.4061 65.0001 59.264 61.1421 59.264 56.4V47.7234C62.5024 47.2594 65 44.4684 65 41.1039ZM43.9682 26.764C43.9682 24.1263 46.1141 21.9803 48.7519 21.9803C51.3898 21.9803 53.5357 24.1263 53.5357 26.764C53.5357 29.4018 51.3898 31.5477 48.7519 31.5477C46.1141 31.5477 43.9682 29.4018 43.9682 26.764ZM12.4243 63.0955C11.8951 63.0955 11.4644 62.6649 11.4644 62.1357V59.264H13.3839V62.1357C13.3839 62.6649 12.9534 63.0955 12.4243 63.0955ZM16.2519 54.5028C16.2519 56.0781 14.9703 57.3596 13.3951 57.3596H11.4533C9.87809 57.3596 8.59648 56.0781 8.59648 54.5028V53.5282H16.2519V54.5028ZM25.8043 53.5281H27.7238V54.4878C27.7238 55.017 27.2931 55.4476 26.7639 55.4476C26.2347 55.4476 25.8042 55.017 25.8042 54.4878V53.5281H25.8043ZM58.3118 45.8877C55.6741 45.8877 53.5281 43.7417 53.5281 41.1039C53.5281 38.4661 55.674 36.3203 58.3118 36.3203C60.9497 36.3203 63.0956 38.4661 63.0956 41.1039C63.0956 43.7417 60.9496 45.8877 58.3118 45.8877Z" fill="#1581B9"/>
<path d="M58.3115 38.2397C56.7323 38.2397 55.4473 39.5247 55.4473 41.104C55.4473 42.6834 56.7322 43.9683 58.3115 43.9683C59.8909 43.9683 61.1758 42.6834 61.1758 41.104C61.1758 39.5247 59.8908 38.2397 58.3115 38.2397ZM58.3115 42.0636C57.7823 42.0636 57.3518 41.6331 57.3518 41.1039C57.3518 40.5747 57.7823 40.1441 58.3115 40.1441C58.8407 40.1441 59.2713 40.5747 59.2713 41.1039C59.2713 41.6331 58.8407 42.0636 58.3115 42.0636Z" fill="#1581B9"/>
<path d="M12.1422 6.26883C11.2365 6.26883 10.3753 5.87662 9.77932 5.19277C9.43372 4.79625 9.47511 4.19481 9.87163 3.8492C10.268 3.50359 10.8695 3.54486 11.2152 3.94138C11.4493 4.21004 11.7873 4.36418 12.1423 4.36418C12.4973 4.36418 12.8353 4.21004 13.0694 3.94138C13.415 3.54486 14.0165 3.50359 14.413 3.8492C14.8095 4.19468 14.8508 4.79625 14.5053 5.19277C13.9091 5.87662 13.0477 6.26883 12.1422 6.26883Z" fill="#1581B9"/>
<path d="M28.0016 6.26883C27.0959 6.26883 26.2347 5.87662 25.6387 5.19277C25.2931 4.79625 25.3345 4.19481 25.731 3.8492C26.1274 3.50359 26.7288 3.54486 27.0746 3.94138C27.3087 4.21004 27.6467 4.36418 28.0017 4.36418C28.3567 4.36418 28.6947 4.21004 28.9288 3.94138C29.2744 3.54486 29.8759 3.50359 30.2724 3.8492C30.6689 4.19468 30.7102 4.79625 30.3647 5.19277C29.7684 5.87662 28.9072 6.26883 28.0016 6.26883Z" fill="#1581B9"/>
<path d="M20.0716 9.57985C18.1582 9.57985 16.3187 8.63293 15.5986 7.27704C15.1709 6.47156 15.193 5.61389 15.6592 4.92407C16.5806 3.56082 17.971 3.87888 18.8912 4.08952C19.2857 4.17979 19.6936 4.27324 20.0717 4.27324C20.4498 4.27324 20.8578 4.17979 21.2524 4.08952C22.1721 3.87888 23.5624 3.56044 24.4844 4.92395C24.9506 5.61389 24.9727 6.47143 24.5449 7.27691C23.8245 8.6328 21.9851 9.57985 20.0716 9.57985ZM17.588 5.79685C17.3822 5.79685 17.3203 5.86706 17.2369 5.99035C17.2116 6.02781 17.1444 6.12722 17.2806 6.38357C17.6131 7.00977 18.7044 7.67521 20.0715 7.67521C21.4388 7.67521 22.5299 7.00965 22.8625 6.38344C22.9986 6.12722 22.9314 6.02781 22.9061 5.99035C22.7552 5.76663 22.6742 5.71762 21.6771 5.94578C21.2026 6.05447 20.6647 6.17763 20.0715 6.17763C19.4783 6.17763 18.9404 6.05447 18.4658 5.94578C18.0185 5.84345 17.7556 5.79685 17.588 5.79685Z" fill="#1581B9"/>
</g>
<defs>
<clipPath id="clip0_2635_93">
<rect width="65" height="65" fill="white"/>
</clipPath>
</defs>
</svg>
